<?xml version="1.0" encoding="UTF-8" standalone="no"?>
<svg
   xmlns:dc="http://purl.org/dc/elements/1.1/"
   xmlns:cc="http://creativecommons.org/ns#"
   xmlns:rdf="http://www.w3.org/1999/02/22-rdf-syntax-ns#"
   xmlns:svg="http://www.w3.org/2000/svg"
   xmlns="http://www.w3.org/2000/svg"
   id="svg205"
   version="1.1"
   viewBox="0 0 52.916665 66.145835"
   height="250"
   width="200">
  <defs
     id="defs199" />
  <metadata
     id="metadata202">
    <rdf:RDF>
      <cc:Work
         rdf:about="">
        <dc:format>image/svg+xml</dc:format>
        <dc:type
           rdf:resource="http://purl.org/dc/dcmitype/StillImage" />
        <dc:title></dc:title>
      </cc:Work>
    </rdf:RDF>
  </metadata>
  <g
     transform="translate(0,-230.85415)"
     id="layer1">
    <g
       style="fill:#ffffff;fill-opacity:1"
       transform="matrix(0.11122229,0,0,0.11122229,-2.9960504,228.38874)"
       id="g2399">
      <path
         style="fill:#ffffff;fill-opacity:1;fill-rule:evenodd;stroke:none"
         d="m 259.90625,24 c -6.51663,-2.865984 -9.49194,5.872452 -14.8125,3.96875 -4.43606,0.01692 -10.48602,0.610009 -12.96875,4.375 0.71167,4.826176 -4.72342,12.539174 1.03843,14.968353 4.11127,4.094164 11.50848,5.26404 14.79931,-0.380234 6.99534,-6.042532 -4.60856,4.761077 -3.42665,7.813259 1.93358,5.838326 0.90286,13.620249 -6.94682,9.632431 -6.40532,-3.532794 6.28465,-3.366335 5.75236,-5.43105 1.45987,-6.462577 -3.70333,-8.702799 -9.12288,-9.165259 -6.54396,-1.087486 -9.52436,8.139649 -13.83519,3.517471 -6.50502,-3.160203 -10.61594,-1.7152 -8.29103,-8.156345 -5.02588,-1.060557 -12.8016,-9.703739 -14.30826,-1.115817 -2.84493,5.914173 -7.50173,-10.554777 -11.94859,-5.298766 -6.48912,7.429803 -5.948,-0.637293 -8.55232,-5.754825 -0.96453,-6.887889 -8.92967,-3.087099 -13.03336,-1.816718 -4.67054,2.462997 -3.47295,12.698476 -9.46875,8.84375 -4.78635,0.538096 -6.88072,11.237395 -13.20629,4.833153 -5.19444,-2.38165 -8.70367,6.155562 -13.20842,8.309405 -4.85479,1.539493 -12.99152,-3.710763 -15.06652,3.078717 -5.84819,4.684766 -1.23223,9.484386 1.83053,14.239512 3.35529,3.252802 -0.62177,7.536027 0.0257,11.539213 -0.61972,5.690292 1.07651,11.658202 1.78125,16.875 -5.08186,0.362941 -2.19279,-10.163281 -4.20596,-14.281073 -1.6327,-4.566911 1.10125,-12.776106 -5.76279,-12.968927 -3.82131,3.321423 -8.468439,5.043927 -14.650416,1.746935 -5.73813,-3.894373 -8.356503,6.399151 -14.240514,2.045587 -6.77576,-4.281064 -8.864442,2.489922 -11.698757,7.498925 -5.317626,5.848167 -3.514784,13.819234 -4.285313,21.021053 3.858053,4.15555 -10.454032,6.11775 -6.375,10.15625 6.881461,3.77258 2.861857,9.90152 2.943642,15.03282 5.806207,4.73808 7.112521,8.12742 -1.530727,4.96712 -7.73542,-4.33973 -7.732528,2.49712 -8.285622,8.56328 1.956599,5.2771 4.17793,9.54067 -2.096043,13.21803 2.308065,6.19302 4.64398,12.37571 6.96875,18.5625 3.929372,-2.24593 13.412362,-0.31678 12.0625,-6.5625 -0.0359,-8.56329 3.106244,-16.85436 8.125,-23.71875 0.367272,-4.93818 -8.526995,-10.60578 -1.40625,-10.09375 2.124263,-2.14291 6.25187,11.35527 2.723356,12.11948 -5.424984,1.45796 -6.224211,8.46855 -7.754606,13.25552 -2.638937,10.20917 4.071514,20.23853 13.03125,24.625 -2.791721,6.24175 -5.781429,12.46113 -5.09375,19.5 0.500451,-8.05012 -6.104073,-6.91403 -12.03125,-6.625 -2.880875,2.56796 -3.282754,11.41033 -7.3125,7.34375 -5.174857,1.16724 -13.802134,-1.81718 -13.501425,6.09715 -3.787747,6.09724 2.258723,10.88764 4.813925,16.1216 -6.037305,-0.047 -10.979491,6.02086 -9.03125,12 1.301923,5.05705 -1.154901,12.88363 6.025413,13.63539 10.24284,4.16159 -7.297568,-0.75004 -8.023546,1.90247 -0.574568,3.21599 5.377738,11.72685 0.373133,11.30589 -8.259099,-0.46775 -10.242815,11.37169 -4.706297,15.94243 1.14135,5.94907 14.651702,3.00045 13.589701,5.27388 -6.120827,1.96778 -12.556589,0.34834 -18.664654,-0.77881 4.486493,5.12915 8.11516,11.88409 13.1875,15.9375 0.343706,2.00067 -4.974419,8.71168 2.70229,12.40692 1.244673,6.37307 12.161524,-1.97054 8.61021,5.68683 3.150777,6.19732 9.019701,6.43813 15.21875,5.96875 3.377268,-6.14027 -4.116981,-8.47833 -7.497101,-12.26493 -2.8832,-3.98576 -2.580457,-10.38184 0.273513,-15.11284 1.911229,-1.78577 2.97979,-14.86722 5.405228,-9.61928 -0.151909,2.14408 -3.55128,4.74968 -2.83789,8.43455 -1.638329,11.76981 6.753243,22.66387 17.8125,25.90625 5.30664,0.29479 5.023071,4.07464 4.09375,8.5625 4.716957,2.50913 9.343905,5.76531 14.375,2.15625 3.25825,4.63533 7.25556,10.55153 13.875,8.75 4.05211,0.65654 7.23044,-2.4643 9.71875,-5.125 4.29469,4.1405 9.54997,8.7375 15.21875,9.75 7.96397,-2.7989 16.8289,-7.68807 18.46875,-16.71875 5.06111,-0.33755 13.23345,6.39952 15.67292,0.13461 4.20526,-4.90561 4.4938,-12.72353 -0.79792,-16.94711 2.14753,-5.12391 10.85285,0.17815 15.11262,-2.84961 7.40037,-1.88164 5.41953,-10.2186 7.85359,-15.86677 2.92724,-5.76048 -3.72801,-10.00811 -5.87246,-14.93987 -7.16441,6.8468 -6.42448,1.69823 -4.37617,-5.46699 3.38977,-5.62895 -8.452,-6.55608 -6.46763,-10.65161 1.08742,-10.22732 3.42538,2.19624 8.91269,4.20831 3.04595,4.30196 2.17825,10.62511 7.96236,13.78529 2.41155,-2.19826 5.45592,-3.79328 8.8125,-3.3125 1.94224,-2.60237 8.91072,-15.948 6.80528,-9.94444 -5.05572,6.82677 2.2497,7.36269 7.58628,8.906 5.29012,1.64779 8.13598,-6.81996 12.44106,-9.29494 -0.15307,2.52199 -10.59798,8.3742 -4.30833,10.56841 4.99751,3.62362 11.08035,4.21508 16.66321,1.57747 2.76209,-4.6419 -0.15213,-11.40403 3.0625,-14.3125 6.55869,-0.63173 14.7984,3.0477 18.84375,-3.875 0.67661,-4.24727 6.52682,-15.05193 -1.21875,-8.1875 0.98995,-5.47565 2.68403,-11.84584 3.9375,-17.65625 5.03788,-0.20083 3.67764,10.40118 6.1875,14.46875 3.35159,3.46111 11.69617,0.32037 16.96711,1.24696 2.81622,1.71315 -10.75196,1.36812 -14.70237,1.76166 -6.88266,-1.66052 -6.83292,7.2992 -10.01474,11.33513 -3.38648,5.64453 2.02944,8.3906 5.83326,11.57057 4.15725,4.30431 8.85353,1.70588 12.11682,-2.09376 2.17272,-6.34058 4.47761,-6.26274 10.76867,-3.50806 4.57676,0.16156 10.83037,1.06959 11.5,-3.75 3.51971,5.29534 8.57154,9.46198 13.84375,12.90625 -3.58091,0.52543 -13.92649,-4.82189 -10.1875,2.125 1.36905,3.88217 0.3269,12.24962 5.96875,12.6875 4.61119,-2.27323 5.64596,-9.09732 9.28125,-11.75 5.32033,7.1632 8.09175,-11.58896 10.62913,-3.9706 3.2586,2.01256 9.88633,6.8173 13.68269,4.22053 5.18372,-6.25708 7.72642,-5.09782 12.74098,-0.55253 6.09231,3.90146 13.41687,0.2583 16.45544,-5.7296 2.88547,-6.33776 10.73218,-1.37577 16.02955,-1.65936 9.21008,-1.17015 4.62473,4.12195 -1.7309,4.08145 -4.97181,-0.581 -12.37505,-2.93027 -14.04443,3.788 -3.13126,4.22406 -10.22657,8.71645 -14.59482,3.38072 -4.50635,-6.45046 -9.77591,-0.54692 -14.83736,1.85194 -4.29179,3.08628 -13.33466,4.17224 -8.7647,11.00741 0.10889,5.85053 7.6498,4.38946 11.59067,6.23829 9.51393,-1.91564 7.83361,2.07981 2.74563,7.86936 -0.50192,-3.62182 -1.97556,-7.02421 -6.40188,-6.18186 -4.47197,-0.5908 -8.82737,-1.83756 -12.96875,-3.46875 -1.89941,-4.86856 -1.4218,-16.16069 -7.92749,-8.5311 -4.95158,4.3952 -12.53139,6.92617 -15.91961,12.42725 -1.5396,5.38738 8.14681,6.76322 11.28043,10.48367 4.32894,2.66867 10.78203,9.44011 15.03542,3.21393 6.81998,-1.23001 5.4555,10.13271 12.375,7.6875 7.82702,1.57456 10.09402,-1.11614 6.40353,-8.31496 -4.50575,-9.36339 1.13397,-5.94542 6.93855,-2.21529 5.18104,2.85202 10.09571,6.69196 16.37667,5.624 -3.07992,7.08224 -1.99791,10.93814 6.33998,9.27527 6.16585,2.06858 8.17853,-5.08721 10.75377,-9.15027 2.30653,-3.16382 1.84125,-10.20077 7.25592,-7.42337 5.80045,1.49619 11.62408,2.96378 14.16721,-3.98404 4.97666,-3.26938 5.47204,-11.71083 9.76305,-12.30666 6.80279,1.77628 9.85582,-2.44832 11.95908,-8.29375 4.1086,-7.71886 3.46635,7.20685 -2.43071,8.28029 -2.52612,5.69484 -10.24831,-3.36159 -12.13885,3.90543 -0.1347,6.02835 1.09146,10.88038 8.0603,10.94628 4.71046,2.83196 11.39732,1.12383 14.739,-2.06168 3.186,-4.37251 2.10955,-15.08428 9.24921,-13.5768 6.17774,2.12392 8.95287,-2.51639 11.62579,-7.2357 2.04012,-6.39038 -2.6065,-9.09645 -7.625,-11.59375 1.77437,-2.50645 4.17629,-15.17648 4.26127,-10.7859 0.289,6.35267 -0.0109,12.897 5.04605,17.58691 0.79991,5.8632 7.53134,7.37029 8.76897,0.70722 5.58684,-5.93906 -5.35411,-7.12927 -1.13879,-10.63323 1.03625,-4.68231 0.67098,-16.72615 1.59247,-5.31376 -0.31982,7.05974 5.57547,12.99114 2.34268,20.06613 -3.03654,2.61766 -11.54172,-1.83538 -13.49765,4.02888 -2.75718,4.40192 -9.14178,4.76882 -11.61487,8.64981 -2.18261,4.45877 6.03773,10.11299 10.14153,9.96481 5.89806,0.0979 11.82379,0.1307 13.02999,-6.96538 4.61271,-6.07566 0.80369,-11.6055 9.1044,-7.68999 5.16365,1.67831 7.73137,-5.27438 9.90675,-8.93399 2.03909,-4.66672 7.25699,-11.43986 1.77595,-15.71276 -6.5456,2.63816 -5.26673,-7.21266 -7.51676,-10.69826 -2.16039,-6.02267 -10.71402,-1.14521 -13.98324,-3.58299 3.57663,-5.03738 -0.77232,-12.20653 -6.9375,-10.21875 -1.56733,-2.41292 4.31653,-11.50594 -0.75,-11.75 -3.48666,-1.05343 -16.9724,0.90078 -10.76616,-2.04771 0.15732,-5.20032 4.64514,-11.8864 -1.82021,-14.79746 -9.23644,-6.33335 0.35653,-3.48539 5.99762,-2.51593 5.80146,6.24043 7.30305,4.85901 5.7298,-3.4426 2.06953,-8.26585 -4.8962,-7.92751 -11.0835,-8.30624 -6.72048,-1.32497 -5.27348,10.17759 -4.52412,-1.74501 3.42918,-7.48838 -6.35497,-7.36237 -10.86588,-10.25216 -8.68216,-2.01256 -5.52538,-3.26238 -4.8478,-9.67129 -1.65755,-5.7501 -0.14157,-13.904 -7.70049,-15.20294 -5.35841,-3.57412 -10.48833,-5.9295 -13.74935,1.28924 -3.15482,0.94294 7.96899,-8.02288 3.21088,-12.67146 -1.13898,-5.26082 -8.31862,-6.7685 -11.86204,-10.41769 4.41578,0.64571 15.15552,-1.16834 14.71512,4.21456 0.30441,4.17561 -2.64406,12.52522 3.2171,13.21948 4.02787,2.6216 13.80662,1.95564 14.44998,6.51208 -2.03722,6.11993 -1.25688,12.54279 -1.3822,18.86638 3.37086,-3.29718 6.27434,-2.07917 8.6875,1.34375 3.35631,3.54821 7.43681,6.83404 12.5625,7.09375 1.24044,-4.98534 11.99518,-4.3158 10.29075,-11.2413 -1.64852,-8.67591 5.20172,-8.31818 10.00618,-11.129 6.78315,-4.25447 3.19832,-7.82878 -2.16369,-11.22346 -3.39844,-4.66175 -12.38258,-4.62136 -11.22699,-11.74999 -6.21285,-2.93303 -3.69712,-5.20962 1.61622,-9.69748 6.40161,-3.47313 3.79715,-10.46902 3.94628,-16.39627 -6.56175,1.42345 -12.2095,4.37956 -16.36937,9.76323 -6.79708,6.26748 4.86397,-4.04057 1.71312,-7.95073 -2.43306,-3.9743 -4.32602,-11.21536 -10.46875,-9.21875 2.17739,-4.54217 0.43998,-11.07549 -5.39724,-11.17584 -3.69525,-1.13921 -11.68826,-3.13188 -4.16526,-3.57416 6.6501,-0.91883 12.55388,3.06898 17.03125,7.5625 0.6956,-5.57311 2.1839,-11.46474 -0.0465,-16.42355 0.36474,-3.685875 4.76307,-11.957635 0.14025,-12.1702 -5.12345,0.581785 -9.49487,-0.663912 -13.6875,-3.34375 -4.72527,-2.198332 -10.42364,-2.731371 -15.25,-0.5 4.32364,-3.98406 2.85429,-10.146976 3.8125,-15.375 -6.06878,0.122019 -12.83307,1.478013 -14.62462,-5.988501 -2.57298,-5.522994 -10.10605,-6.895588 -0.0601,-7.93407 -1.5552,-4.042548 -2.26283,-10.923516 -5.42286,-13.857071 -5.82612,-3.321226 -8.52415,2.108988 -11.79868,6.029642 1.01477,5.439795 3.33273,11.766439 -4.19486,6.235512 -4.5323,-5.720733 -12.60837,0.703194 -10.08639,5.014488 4.22464,3.145857 8.04049,11.347154 13.68016,7.320039 1.54042,-7.380547 6.83625,-9.586127 1.03859,-1.663789 -1.54785,4.46919 9.0805,7.690044 5.875,13.25 -4.44771,-2.388365 -8.51227,-9.152439 -13.1875,-8.96875 -6.6569,4.948601 -3.51389,-5.388379 -10.93018,-5.72339 -8.12984,-7.522308 -5.87068,0.734494 -12.28769,1.432204 -9.03447,1.403269 -4.20377,-1.426414 0.12153,-5.310678 -2.32527,-6.184334 -5.51682,-6.880755 3.65884,-7.116886 4.6555,-0.351028 -0.62175,-7.688801 -0.4375,-11.0625 -2.33032,-5.518293 -9.83802,-2.799653 -12.5625,0.90625 -1.66415,4.895253 2.30276,12.614034 -6.90625,8.90625 5.87882,-0.245395 3.83047,-9.933832 6.34378,-14.188966 1.08069,-5.599402 -3.10052,-11.83232 -9.0918,-7.753844 -8.0315,-0.878202 -6.74558,7.003791 -7.96352,12.555907 0.93426,2.114782 2.04552,5.081778 2.39904,7.949403 -0.25842,3.494344 -10.27865,-3.409767 -14.361,-3.98843 -5.59502,-0.868712 1.32362,-8.907945 -5.12997,-11.280989 -4.23093,-1.187711 -12.44163,-12.136683 -12.89975,-4.126447 -3.20843,6.306413 0.59976,7.171515 3.14072,11.583366 1.00959,4.220816 5.52938,9.407311 10.0625,6.5 -0.16944,2.660335 -0.22565,5.362428 0.15625,8 -4.70523,-4.799239 -10.46947,-7.530927 -17.0625,-8.625 -1.21063,-6.024011 -1.94432,-12.7776 -9.5625,-9 7.60091,-5.434527 2.56214,-7.503698 -4.39078,-8.994844 -6.13617,-4.120256 -10.49298,-1.452195 -14.06371,4.279706 -2.31124,3.917833 3.73189,7.980893 7.73574,7.090138 4.97954,4.494712 12.82129,-4.332721 7.35768,3.409636 -5.48286,1.406128 -11.79114,-4.096752 -16.85768,-2.315886 2.42431,-5.63792 -4.08244,-6.000818 -7.40625,-8.59375 C 267.06745,29.619025 263.77872,25.913884 259.90625,24 Z m 3.3125,23.40625 c 1.72462,7.758294 10.0405,1.929844 13.41086,5.921411 6.06392,8.078266 -2.56354,6.070109 -6.43098,1.054617 -6.25852,0.482679 -7.21015,-4.813044 -11.81793,-7.896132 -11.45226,-4.727169 2.29546,-2.712704 4.83805,0.920104 z m 82.375,2.375 c -0.0414,0.120471 -0.19591,-0.09901 0,0 z M 169.4375,51.4375 c 4.29148,1.395382 7.68396,8.353124 12.1421,6.647284 9.74362,-4.19146 5.21008,-0.554587 -1.92335,1.602716 -5.57362,9.878864 -0.18489,-1.561712 -6.94151,-2.699231 -1.83962,-4.052306 -16.58304,-2.917067 -10.39188,-5.362844 2.3784,-2.00828 4.5191,-1.197948 7.11464,-0.187925 z m 28.15625,5.25 c 4.56801,4.623658 9.19506,9.217421 9.1453,16.179236 1.62478,7.211964 7.89954,2.021596 12.7922,3.039514 6.95839,3.443192 10.20516,-4.810065 10.75543,-6.475925 -1.12607,2.450885 1.16244,9.227346 -3.41168,7.975925 -9.04121,-1.412276 -18.91555,0.719506 -26.46875,5.9375 3.80995,-7.625601 4.19605,-19.350583 -4.33648,-23.924754 -4.74164,-3.746797 -4.42382,-3.27029 1.52398,-2.731496 z M 325.875,57.5 c 0.87174,3.396579 1.93368,6.580922 0.46875,10.0625 C 327.32801,63.413085 320.59589,61.102863 325.875,57.5 Z M 148.53125,70.625 c -5.15813,-2.112611 -10.04828,-5.272544 -15.84375,-4.9375 5.06997,-1.028865 12.31309,2.376685 16.03189,-1.429176 1.07714,-1.180194 -0.34595,5.034296 -0.18814,6.366676 z m 206.6875,1.34375 c -5.54059,-0.28221 -12.40898,-2.95825 -17.1875,-1.71875 3.80987,-2.554031 8.31368,-5.410654 12.71875,-2.90625 6.04031,1.844477 8.98337,-4.394619 4.46875,4.625 z m -48.84375,1.5 c 5.72687,3.216045 9.78938,-1.452939 12.10488,1.194394 6.10522,0.708216 5.00295,0.105028 8.93869,4.688741 1.71066,3.555185 1.95428,9.275802 6.14393,11.898115 3.87504,2.967118 8.92638,4.160874 13.6875,4.15625 -7.20052,0.215574 -9.30673,4.90056 -9.30988,11.46965 -3.96251,7.04966 6.14518,11.46368 3.76284,18.34464 -0.96311,11.0369 -0.87489,-2.87518 -2.54671,-6.40804 -5.85776,-3.45111 -5.56701,-7.34146 -2,-11.53125 -0.64613,-6.00691 -2.08017,-11.548541 -7.86845,-14.498023 -4.06516,-3.465244 -0.60304,-12.171165 -8.06337,-12.440381 -4.40897,-0.223217 -12.40829,-8.933569 -14.0523,-2.628303 -1.04315,5.070364 -5.97551,10.913393 -4.73463,15.535457 7.96565,6.96596 -2.44624,1.059812 -1.55903,-4.040125 0.25175,-6.098344 5.31548,-13.261506 -0.94097,-17.741125 -6.79141,-8.641056 4.04803,1.322797 6.4375,2 z m 73.34375,7.90625 c 4.57024,2.425016 8.56368,9.298002 13.95993,4.723276 6.85687,-0.0803 10.61728,3.66209 7.63382,9.870474 -0.59881,-6.759515 -9.90275,-9.523036 -14.84375,-6.71875 -4.1734,-4.095802 -10.32621,-4.555052 -15.53125,-6.65625 1.66986,-2.802264 6.04146,-0.687781 8.78125,-1.21875 z m 47.1875,3.125 c -0.4634,12.784255 -0.77293,25.75477 -2,38.3125 3.93783,6.52221 7.01262,14.11044 3.0625,21.4375 -4.01832,11.26084 -1.74501,-0.12931 -1.06882,-5.76954 2.87142,-7.33618 -5.17038,-11.77864 -8.36868,-17.51171 6.65784,-4.4081 3.23395,-7.93211 -2.24102,-11.30759 -0.161,-4.97068 -8.26939,-11.381252 1.36602,-7.34866 5.86791,0.14169 -0.24827,-10.27306 5.06973,-13.102412 0.7491,-0.34244 5.00921,-8.487056 4.18027,-4.710088 z m -226.9375,13.34375 c -1.66632,6.0943 -2.04775,-6.238668 -5.21221,-6.866072 4.04698,-8.385999 3.37812,3.242911 5.21221,6.866072 z m 165.0625,1.59375 c -2.36015,7.04755 -13.7204,-5.093494 -10.56973,-4.576176 3.90216,-0.663561 7.05146,3.323711 10.56973,4.576176 z m 37.75,-1 c 10.8213,0.681818 -10.33221,4.0279 -1.375,-0.1875 -0.11929,-0.677311 1.03156,0.272155 1.375,0.1875 z m -29.9375,0.53125 c 6.13742,-0.604295 11.82389,3.11855 17.09375,4.65625 7.87935,-5.94078 -0.79556,9.2644 -2.78125,7.1875 -2.41575,-4.93591 -3.11735,-12.064783 -10.29356,-10.992491 -0.59956,-0.207914 -5.15578,-0.759165 -4.01894,-0.851259 z M 206.15625,101.75 c 5.86352,1.46841 3.84721,8.06197 4.03125,12.53125 -4.72891,-1.82624 3.79607,-10.77669 -5.07076,-12.32099 -3.82693,-2.711024 -1.91729,-1.79196 1.03951,-0.21026 z m -102.9375,3.375 c -4.79369,6.12288 -5.68963,15.35071 -2.375,22 3.88799,3.40528 8.45551,3.48215 9.72132,7.62231 2.77731,4.00894 12.32663,12.74877 2.00324,7.60561 -5.05667,-3.02808 -8.34639,-2.27537 -7.69331,3.77208 -0.38671,6.32041 1.12904,12.51583 2.25,18.6875 -5.61074,0.37021 -4.40464,-3.61253 -4.16039,-8.4354 -0.45534,-7.40231 1.58823,-15.54313 -0.37086,-22.5021 -6.022804,-8.0118 -5.092965,-19.31114 -4.25,-28.125 1.96721,1.02791 3.2258,0.48535 4.875,-0.625 z M 79.5625,116.40625 c -1.559344,3.29587 8.046517,6.32367 3.4375,8.65625 -2.652851,1.72643 -7.697128,4.70922 -2.796191,-0.22143 1.711083,-4.42203 -6.576019,-8.96515 -1.891309,-14.71607 8.665641,-7.48908 2.115151,0.81694 1.25,6.28125 z m 136.125,-0.0625 c 6.61116,4.05088 5.89546,13.59482 2.71875,19.5625 -1.00986,4.20256 4.41925,6.95656 2,11.21875 -2.33301,3.99976 0.77444,9.04181 5.5,8.40625 7.22915,0.32167 13.90026,10.1711 7.6448,15.84505 -5.14897,6.81048 5.31274,-7.3414 -1.86362,-8.43136 -3.96414,-3.68643 -7.15589,-9.74748 -13.37675,-6.48082 -1.22838,-5.93873 2.80838,-14.27902 -3.06068,-18.21412 5.40033,-1.84932 1.89814,-9.86415 3.4375,-14.375 -0.65781,-2.087 -3.43363,-6.65272 -3,-7.53125 z m -106.0625,7 c -0.28385,2.47004 -0.9074,0.51533 0,0 z m 230.78125,12.5 c 1.47839,4.31802 11.6269,8.84316 0.84107,6.21735 -5.77088,-2.84692 -9.99989,6.9857 -13.25579,4.59348 -2.6063,-4.83956 -12.39793,-8.96492 -2.73224,-6.9998 4.02675,1.66559 11.49313,2.64237 13.09482,-3.2049 1.4544,-1.63689 3.27877,-6.28776 2.05214,-0.60613 z m 112.71875,8 c 2.32114,4.32955 12.33374,8.05921 6.99551,13.03983 -3.00557,3.99023 -8.55604,14.85008 -5.97018,3.55469 1.127,-5.87516 1.55431,-11.59245 -2.62706,-16.41311 -0.88374,-0.3686 4.0202,-1.4064 1.60173,-0.18141 z m -101.15625,3.21875 c 1.44971,4.64214 -2.9081,13.90502 4,14.1875 -8.97028,2.74873 -6.24957,-6.37086 -6.85105,-12.11787 0.23113,-3.91832 -1.6764,-6.5351 2.85105,-2.06963 z m -70.59375,0.21875 c -4.73196,-0.68806 -5.68729,-3.42425 0,0 z M 290.1875,152 c 0.37395,5.62501 -1.40745,11.76951 5.12492,13.85419 7.34383,2.65739 2.79885,10.34734 2.9209,16.07719 3.23572,3.92012 12.10159,5.86054 8.03296,12.21018 0.12663,4.98056 -4.75177,11.70175 -8.82878,10.85844 3.40699,-2.37151 6.76477,-9.90853 4.4216,-13.54888 -2.45668,-4.49855 -9.92382,-7.47715 -5.9841,-13.16987 1.75474,-5.16079 -1.06095,-12.5454 -7.46875,-11.625 -4.51756,-1.44699 -1.23968,-9.65222 -2.59042,-13.70672 -1.16009,-6.08801 1.39965,-1.84346 4.37167,-0.94953 z m 117.34375,-0.125 c -2.5329,1.99189 -8.45897,14.74017 -8.375,8.875 -2.54277,-6.11621 -6.65444,-11.8038 1.875,-7.5625 1.09603,0.16928 10.21046,-4.93428 6.5,-1.3125 z M 108.8125,165.8125 c -3.10394,-0.85329 -0.47317,-4.12634 0,0 z m 255.625,1.6875 c -0.86255,5.82152 -1.66522,11.65301 -2.5625,17.46875 -4.413,-1.21125 3.56534,-6.56578 1.67061,-12.72325 0.34008,-1.08306 0.31777,-4.61597 0.89189,-4.7455 z m 85.6875,3.96875 c -13.54216,3.40126 5.80027,-6.76453 0.76,-1.0967 l -0.56959,0.82193 z m -358.65625,0.4375 c -0.405515,1.78995 -2.645766,4.3968 -0.8125,1.21875 0.06722,-0.22805 1.304227,-2.15656 0.8125,-1.21875 z m 135.21875,6.6875 c -2.94502,1.30392 0.0661,-0.61753 0,0 z m -138.75,2.21875 c 0.439317,7.91553 7.212064,13.43682 12.90625,18.09375 -5.71117,6.46147 1.45062,7.56992 6.83438,9.40274 -3.78418,0.50072 -13.974189,-5.99376 -13.328844,2.51125 -0.477058,5.32631 -6.007693,12.44935 1.378682,14.95913 0.625567,4.71409 -4.709692,11.63388 -3.207211,15.91075 7.609083,1.59629 5.298485,7.73683 4.010493,13.40363 4.44008,7.98916 0.234038,8.61158 -2.300219,0.55022 0.123177,-5.13198 6.461219,-11.97525 -1.621653,-13.85991 -5.332082,-3.68692 -8.923223,-0.74179 -5.029212,-8.43319 0.150704,-4.98719 6.809277,-13.04083 -1.02611,-14.22583 -6.237797,-2.09967 -0.928618,-9.98301 -8.989561,-11.17236 -5.867328,-7.8371 5.509597,1.85277 8.324794,3.78838 4.749914,5.59923 6.803555,-5.54537 10.266961,-8.11606 1.982481,-6.88888 -3.309574,-10.61917 -7.948191,-14.62212 -5.323564,-3.93658 -5.437647,-5.0783 -0.270559,-8.19038 z m 31.46875,2.5625 c 2.75772,1.68167 -3.60571,0.53515 -4.8125,-0.0625 -4.53306,-5.11093 3.04019,-0.91657 4.8125,0.0625 z m 3.71875,3.125 c 3.20827,3.57624 2.55689,10.37179 8.3125,11.65625 2.76333,1.37016 6.49253,1.03385 9,1.03125 0.95908,5.47026 6.5065,8.61598 11.125,9.6875 -6.97864,1.097 -10.15363,-5.61171 -15,-9 -4.83966,-2.58571 -15.07608,-0.60578 -12.65665,-7.66757 -0.23797,-1.85656 -0.61577,-3.98345 -0.78085,-5.70743 z m 245.5,4.4375 c 1.61022,12.47792 -5.18277,23.55629 -8.46875,35.21875 -7.08978,0.39545 -7.13502,-0.95366 -1.3125,-2.28125 1.55196,-5.72335 8.49357,-11.62807 3.4744,-17.14462 3.528,0.32605 5.79576,-6.26077 5.76317,-12.48937 0.1896,-1.04405 0.31388,-2.39274 0.54368,-3.30351 z m 41.125,4.59375 c -6.62805,4.49071 -11.57893,-2.01055 -2.47804,-1.63644 z M 399.84375,196.5 c -1.58389,0.81925 1.91221,-1.33433 0,0 z m -71.65625,4.21875 c -2.0004,9.26741 -3.31657,18.51562 -6.65907,27.19226 -4.06755,6.48827 -11.27095,8.03329 -18.09093,10.18274 -2.74882,-7.14306 2.86505,-8.2318 9.61187,-5.35066 5.45641,1.3717 6.34532,-7.89413 9.88813,-11.05559 -1.97539,-4.11485 0.15821,-7.0577 1.71875,-10.625 1.49769,-4.13886 -0.41817,-8.57484 1.46875,-12.625 z m 89.78125,4.1875 c 1.2373,2.04265 17.10367,7.2182 9.07686,5.21554 -4.16278,-3.27351 -6.91731,-1.4273 -8.51436,2.97196 -2.93717,5.72886 -4.54507,12.05648 -4.9375,18.5 -4.35168,2.42888 -9.53196,7.26706 -6.23747,1.55751 6.95464,-0.30061 4.03564,-8.45739 5.48747,-13.12001 -2.33821,-6.1366 -6.79104,-6.71448 -0.59375,-7.3125 1.63841,-1.58431 4.56218,-9.1773 5.71875,-7.8125 z M 111.625,207.6875 c 0.51303,5.46053 6.78196,7.91833 9.53125,12.21875 -7.77522,-2.29858 -1.17702,13.31986 -7.10715,8.1137 0.32276,-6.52857 -2.03468,-12.81715 -4.39285,-18.95745 0.55989,0.70515 1.6641,-1.96272 1.96875,-1.375 z m 321.84375,10.625 c -1.33774,5.29143 -5.07337,11.08821 0.99482,14.82529 -6.13384,2.19823 -4.52351,-7.60637 -3.21435,-12.88918 1.65458,-3.41633 -2.13906,-11.10217 2.21953,-1.93611 z M 82.875,217.4375 c -2.030339,2.68498 -1.592297,16.1872 -4.875,5.90625 -2.317132,-3.13354 -16.946318,1.06924 -6.811116,-3.36507 3.710441,-0.69926 9.05562,-7.45023 11.686116,-2.54118 z m 150.5625,8.9375 c 0.53515,2.39022 -11.1842,7.02274 -6.10495,2.29327 2.19618,-3.63242 5.32652,-6.80139 6.3237,-11.01202 z m -171.875,22.65625 c 2.13141,6.0727 8.672235,3.89068 12.020801,-0.54443 7.612311,-8.39654 3.540877,2.86129 3.075133,8.05364 -0.340698,6.9096 -8.854217,-3.20817 -12.814684,-3.97796 -4.455518,6.67297 -3.805194,-7.88719 -5.908671,-11.00035 -3.256714,-5.89343 2.54627,-10.81284 4.408671,-16.1559 z M 127.03125,236 c -0.86218,6.19572 -3.8894,9.14923 -3.34375,0.8125 -4.34434,-6.57137 -7.75578,-6.86815 0.98538,-2.17829 z m 314.4375,5.5625 c -0.29161,4.67116 -2.89577,11.93022 3.40625,13.6875 1.33104,0.86125 5.60569,0.89379 2.03125,1.96875 -4.96125,2.24612 -3.16975,5.67691 -8.80455,-0.16071 -8.00699,-3.108 0.90075,-9.02319 2.7108,-13.74554 -0.20772,-1.52319 -1.17616,-4.73721 0.65625,-1.75 z m -33.78125,5.21875 c -8.54284,6.54539 -5.16178,-1.52376 0,-5.6875 z M 226.6875,245 c -3.25913,8.58964 -6.27325,6.55459 -2.28704,-0.0137 0.20652,0.24146 3.06805,-0.75385 2.28704,0.0137 z m 25.4375,1.4375 c -2.33868,8.2241 3.25162,8.51921 9.9375,7.71875 -2.94991,2.35275 -16.59779,1.90613 -13.97938,0.38779 3.2103,-0.87644 1.30677,-7.75146 4.04188,-8.10654 z m 146.78125,2.71875 c -6.59706,-0.80454 -1.78518,10.22208 -9.15644,12.55747 -1.93528,7.48347 -12.84481,-1.46403 -10.74201,-2.81814 3.24798,4.17792 10.57894,5.0661 11.98603,-1.13205 5.99373,-3.17421 -1.1689,-15.17839 7.13887,-9.00563 z m -272.4375,5 c -3.24227,-0.53282 -1.87826,-5.46437 0,0 z m 14.40625,3.78125 c 6.9604,6.68915 -10.58682,-4.27258 -5.76165,-1.21298 z M 56.59375,257.625 c 6.383369,-0.69844 -3.22412,3.66437 -1.09375,7.21875 0.861087,7.15146 4.084888,13.79346 7.3125,20.21875 -5.220232,-0.19691 -13.708216,2.26506 -9.175694,-5.94771 0.248199,-5.39449 -1.732703,-10.50618 1.228741,-15.94835 0.621094,-1.65482 0.81585,-4.56651 1.728203,-5.54144 z m 177.96875,1.25 c -5.84503,4.24529 -6.13168,-2.04343 0,0 z M 216,260.96875 c -6.36297,4.30266 -7.89281,-1.42873 -1.48744,-0.45498 l 0.95626,0.2925 z M 99.96875,262.875 c 5.0447,0.0426 0.40467,13.97479 1.52585,3.23096 0.94539,-1.41583 -1.783386,-3.79834 -1.52585,-3.23096 z m 345,12.75 c -4.05465,4.68515 -5.29999,10.25011 -10.65625,3.59375 5.93436,0.88087 8.26351,-13.2404 10.07167,-9.50969 z m -195.5625,-6.59375 c -1.01258,4.25877 -9.36428,10.59757 -5.5625,13.5 4.43689,3.65019 9.92794,3.4878 15.34375,3.625 0.99231,-6.0342 1.99773,-12.06645 3.03125,-18.09375 -3.88525,0.67219 -9.9624,-1.37147 -12.8125,0.96875 z m -146.78125,7.0625 c 0.95313,3.60015 15.846,7.01483 8.35558,5.6184 -4.04358,0.38418 -9.33193,-2.73122 -8.35558,-5.6184 z m 29.8125,12.53125 c 9.85372,1.6229 -3.43367,0.46024 -5.51018,-3.92326 -9.05029,-6.57974 -3.89575,-3.12867 2.02839,1.35674 z"
         id="path2459" />
      <path
         id="path2463"
         d="m 168.78988,271.70767 c 9.469,9.38283 36.73614,36.18271 44.54612,46.96162 6.031,6.10727 10.563,14.74228 10.785,29.4769 l 2.153,67.55053 0.613,47.16675 c 0.414,15.86948 -1.371,28.90837 -8.012,35.7077 -8.105,4.97896 -16.73,8.97284 -26.5,10.779 -11.914,3.60467 -23.828,5.85143 -35.742,6.73483 4.711,2.17351 11.633,3.26355 24.649,1.35352 l 46.222,-11.45795 c 3.629,-1.63123 6.25,-4.18521 7.395,-8.08398 3.117,-11.71488 4.101,-23.10067 4.312,-34.36292 0.692,10.74074 1.168,21.79744 0.614,34.36292 -0.157,3.90752 -2.883,6.88352 -6.778,9.43313 -6.09,1.95595 -11.996,4.30986 -17.254,8.08508 -9.711,4.84776 -18.851,10.63468 -27.73,16.84362 26.355,-8.35293 69.637,-23.98844 69.797,-29.51078 l -0.153,-28.43497 2.465,-0.6702 0.153,34.34106 18.66,17.0273 18.312,-0.82873 c -7.187,-4.04418 -14.738,-8.31904 -22.34,-11.45795 -4.332,-2.90822 -6.797,-6.94803 -7.394,-12.12488 l -0.613,-47.16565 h 1.847 l 1.231,41.10103 c 1.718,6.68781 4.617,12.64201 9.242,17.51929 4.312,1.16548 8.629,4.03981 12.941,6.06025 4.723,2.69503 7.735,5.38896 13.864,7.57122 10.99437,0.91179 14.96918,7.78067 33.585,4.55366 l -30.812,-12.12488 c -8.113,-2.9771 -16.391,-5.62073 -23.418,-8.43056 -3.297,-3.13891 -5.555,-5.48844 -6.777,-9.08436 l -3.696,-46.49108 6.778,38.4071 c 1.672,6.01324 5.004,10.89052 9.996,14.63076 l 30.058,12.3173 22.801,9.42985 6.16,-2.02045 c -13.179,-5.54749 -26.074,-10.70685 -37.593,-13.98679 l -16.024,-6.89664 c -4.945,-1.98656 -7.406,-7.59745 -8.621,-16.84363 l -0.621,-10.10552 8.625,18.86408 c 1.121,2.08058 2.973,3.76319 4.93,5.39004 7.601,1.55907 14.793,4.03106 21.566,7.40941 12.816,5.82191 24.816,11.04905 33.895,14.14969 l 28.347,-1.34587 c -17.609,-5.85908 -35.992,-11.43718 -54.851,-16.84362 -7.629,-2.4217 -14.77,-5.65026 -21.571,-9.43423 -2.754,-2.88635 -4.652,-6.0854 -6.16,-9.42985 l -8.012,-113.87543 3.54,-2.37468 c 0.035,-9.76769 0.867,-19.5299 2.152,-29.29759 -11.953,0.14978 -16.77,-3.6637 -20.012,-10.77026 6.465,4.80403 12.738,8.26766 22.945,8.08398 1.938,-5.50047 6.364,-9.63867 9.547,-14.8024 3.703,-3.35211 31.356,-44.92146 32.938,-52.19092 -5.309,-5.67978 -11.113,-10.28373 -17.254,-14.1486 l -28.93,40.0398 c -3.328,2.24676 -6.547,4.89477 -9.859,7.41049 l -4.93,5.38896 -4.93,-2.01936 9.555,-7.74286 -2.16,-46.85953 -3.078,2.72127 0.613,33.68725 h -2.465 l -0.613,-33.68725 -5.848,3.36522 1.536,23.58283 c -1.02,1.57547 -2.352,2.25114 -4.618,2.02045 l 0.305,-24.9287 -9.859,4.0398 1.082,33.01377 h -4.309 l -0.469,-30.99332 -9.242,-3.36523 1.231,27.62263 c -2.055,0.67895 -3.903,0.67895 -5.543,0 l 0.613,-27.62263 c -3.379,-3.06237 -7.898,-2.37905 -12.941,0 l 0.613,20.88343 -3.078,-0.6702 0.011,-21.56347 -6.793,-2.69065 0.614,33.01377 c 2.629,2.48073 7.785,5.14624 16.636,8.08398 -1.437,2.24239 -2.468,4.7111 -3.078,7.41049 l -15.406,-10.78009 -42.812,-40.16905 c 4.54276,7.77409 5.84143,11.74064 -11.57412,14.09195 z M 246.684,436.95188 h 1.18 l -1.18,22.62289 z m -20.027,-95.19503 h 1.445 l -0.852,55.96794 -0.59,-55.96794 z m 1.445,79.05659 h 3.18 l -0.817,47.35808 z m 3.18,-60.39806 h 3.179 l -1.476,114.14985 -1.7,-114.14985 z m 4.628,64.82599 h 0.868 l -0.883,55.65307 z m 0.868,-80.9524 h 2.89 l -1.179,74.30722 -1.707,-74.30722 z m 5.207,61.66193 h 2.601 l -2.011,47.7473 z m 38.754,14.54657 h 2.601 l -0.531,45.21409 -2.066,-45.21409 z m 6.941,-0.949 h 1.723 v 46.48343 h -1.723 z m 3.355,-62.46005 2.012,-0.22194 -0.019,15.32391 -1.993,-15.0976 v -0.004 z m -4.253,-4.06058 3.171,-0.21866 4.391,90.88627 -7.566,-90.66323 0.004,-0.004 z m -6.036,3.42427 2.289,-0.18696 2.883,69.45946 -1.105,0.18805 z M 276.403,343.973 h 2.879 v 104.34827 h -2.879 z m -5.774,19.91475 3.742,0.32034 v 73.67529 l -3.449,-0.32034 z m 22.473,-15.62239 c -0.961,-0.009 -1.891,0.18367 -2.856,0.18367 -2.39,-0.13666 -4.324,-1.77663 -6.121,-3.34336 v 0 c -0.242,-0.20991 -0.394,-0.539 -0.394,-0.90198 0,-0.63631 0.472,-1.15673 1.058,-1.15673 0.25,0 0.477,0.094 0.661,0.25146 v 0 c 0.652,0.56853 1.296,0.94353 1.89,1.61046 l -0.004,0.009 c 2.356,1.44755 3.153,1.03319 5.739,1.02881 h 0.023 c 0.582,0 1.059,0.51714 1.059,1.15783 0,0.63631 -0.477,1.15672 -1.059,1.15672 l 0.004,0.004 z M 238.211,334.4196 c -2.758,2.57914 -5.519,2.98913 -9.047,2.13525 v 0 c -0.472,-0.1148 -0.828,-0.57618 -0.828,-1.12721 0,-0.63631 0.473,-1.15782 1.059,-1.15782 0.094,0 0.183,0.0131 0.269,0.035 2.844,0.68333 4.942,0.43514 7.164,-1.64434 v 0 c 0.184,-0.17165 0.426,-0.2777 0.688,-0.2777 0.582,0 1.059,0.51604 1.059,1.15672 0,0.35096 -0.141,0.66693 -0.368,0.88012 v 0 h 0.004 z m 6.852,-8.52896 c -6.215,4.85214 -13.828,7.97793 -21.137,3.98077 v 0 c -0.453,-0.24818 -0.769,-0.76423 -0.769,-1.3579 0,-0.83748 0.625,-1.5208 1.39,-1.5208 0.223,0 0.434,0.0558 0.621,0.15853 v 0 c 6.321,3.45488 12.93,0.43514 18.278,-3.73696 v 0 c 0.226,-0.17493 0.504,-0.28207 0.804,-0.28207 0.766,0 1.391,0.68332 1.391,1.51971 0,0.50839 -0.231,0.96102 -0.582,1.23435"
         style="fill:#ffffff;fill-opacity:1;fill-rule:evenodd;stroke:none" />
      <flowRoot
         transform="translate(-1.5586203,3.1172406)"
         style="font-style:normal;font-weight:normal;line-height:0.01%;font-family:sans-serif;letter-spacing:0px;word-spacing:0px;fill:#ffffff;fill-opacity:1;stroke:none;stroke-width:1px;stroke-linecap:butt;stroke-linejoin:miter;stroke-opacity:1"
         id="flowRoot4157"
         xml:space="preserve"><flowRegion
           style="fill:#ffffff"
           id="flowRegion4159"><rect
             style="fill:#ffffff"
             y="549.70831"
             x="38.965809"
             height="81.96257"
             width="456.84055"
             id="rect4161" /></flowRegion><flowPara
           style="font-size:40px;line-height:1.25;fill:#ffffff"
           id="flowPara4163"> </flowPara></flowRoot>      <text
         id="text4165"
         y="606.57147"
         x="267.17111"
         style="font-style:normal;font-variant:normal;font-weight:bold;font-stretch:normal;line-height:0%;font-family:Purisa;-inkscape-font-specification:'Purisa, Bold';text-align:center;letter-spacing:0px;word-spacing:0px;writing-mode:lr-tb;text-anchor:middle;fill:#ffffff;fill-opacity:1;stroke:none;stroke-width:1px;stroke-linecap:butt;stroke-linejoin:miter;stroke-opacity:1"
         xml:space="preserve"><tspan
           style="font-style:normal;font-variant:normal;font-weight:normal;font-stretch:normal;font-size:62.5px;line-height:125%;font-family:'Ubuntu Mono';-inkscape-font-specification:'Ubuntu Mono, Normal';text-align:center;writing-mode:lr-tb;text-anchor:middle;fill:#ffffff"
           y="606.57147"
           x="267.17111"
           id="tspan4167">sapucaia.tech</tspan></text>
    </g>
    <path
       style="opacity:1;fill:#ffffff;fill-opacity:1;fill-rule:evenodd;stroke:none;stroke-width:0.11122229"
       d="m 8.9607746,246.00705 c -0.141141,-0.68813 -0.177177,-1.29162 -0.08508,-1.79301 l 1.8785454,0.64041 -1.4089654,-1.75041 c -0.156379,-0.61172 -0.02825,-1.16661 0.3840513,-1.66489 l -0.8536313,0.51218 v 0.72562 l -0.597375,-0.38405 c -0.09954,-0.46969 -0.170838,-0.93894 -0.0426,-1.40897 0.156378,-0.42664 0.426648,-0.85374 0.811144,-1.28084 l 1.0244684,-0.0426 0.170726,-0.25592 c -0.4344341,-1.01612 -0.3358911,-2.83617 0.170726,-3.11634 l 0.59782,-0.38405 1.280836,0.12768 1.365921,0.59738 0.127683,-1.36593 0.768212,-0.7255 0.811033,0.0851 0.981983,0.51229 -0.0426,1.28073 0.768101,-1.15261 1.067066,-0.42665 0.981872,0.81115 c 0.298854,0.76811 0.22767,1.66489 -0.384051,2.43343 l -0.683017,0.55478 0.597376,0.17073 v 0.81114 l 0.640418,0.0852 0.768099,0.59782 -0.255808,0.93882 0.896228,0.25593 0.341452,0.7681 -0.08508,1.28084 -0.469692,0.21333 0.51229,0.46968 v 1.8781 l 0.811145,-0.12768 0.98187,0.98187 -0.341567,0.93894 -1.280721,0.59737 0.0664,0.34968 1.070179,-0.35624 c 0.177177,-0.31364 0.354466,-0.46402 0.532197,-0.45056 l 0.614284,-0.94183 c -0.06818,-0.96931 -0.573015,-1.50195 -1.515405,-1.5976 -0.313646,-0.0269 -0.409297,-0.21811 -0.286286,-0.57301 0.109,-0.27284 0.109,-0.54611 0,-0.81893 -0.272827,-0.24547 -0.272827,-0.54622 0,-0.90113 0.245467,-1.41286 -0.258923,-1.99978 -1.10566,-2.21187 v -0.81891 c -0.02702,-0.25892 -0.218107,-0.46401 -0.573129,-0.61383 l -0.573017,-0.28685 -0.286731,-1.18773 c 0.723391,-0.6144 1.665665,-0.90114 2.826158,-0.85987 0.409297,0.10911 0.655098,0.0544 0.737294,-0.16372 l 0.16372,-1.35168 1.105769,0.24547 0.532199,-0.28675 -0.122567,-1.26949 0.655209,-0.85973 0.778115,0.36837 0.409298,0.73728 0.573016,-0.0403 0.901121,0.65509 0.144704,0.43411 0.426534,-0.92192 -0.536981,-0.81638 -0.988318,0.043 -0.34368,-0.45101 -0.816373,-0.49405 -0.902342,0.15037 -0.60138,0.62307 -0.49394,0.0425 -0.752083,-0.47269 0.171614,-1.332 c 0.300634,-0.18597 0.687357,-0.28629 1.160053,-0.30063 l 0.429202,0.12856 0.60138,-0.53697 0.687241,-0.0214 c 0.569126,0.48882 1.185183,0.90769 1.869092,1.22478 l -0.06429,0.85942 0.429208,-0.34368 1.181737,0.32188 0.64431,0.0426 0.34367,-0.68735 0.5153,-0.0855 0.27939,1.05272 1.13869,0.32187 0.81637,0.64431 -0.34367,0.49405 0.36492,0.62296 -0.0855,0.70904 -0.36503,0.12868 -0.66555,-0.60138 -0.0213,0.49405 -0.75209,-0.10733 -1.16005,-0.75208 -1.09565,-0.0643 -0.31376,0.38705 h 1.22778 l 0.32767,0.53231 0.32755,0.40919 -0.27806,1.39028 0.0964,0.59871 0.18118,0.14081 1.59704,1.43321 0.16383,-0.28629 -1.47458,-1.55622 0.61439,-1.59704 1.63831,0.69636 0.20464,0.98276 0.81893,0.69602 0.20465,0.98277 -0.4093,0.45056 0.0817,0.32755 0.61428,0.61395 0.16339,1.26994 -0.5322,0.77811 h -0.81894 l -0.20464,-0.20465 -1.55623,0.28628 -0.16383,0.20466 1.26949,0.0816 0.90101,1.02369 0.6144,-0.65521 0.49138,-0.16339 0.86019,0.12257 0.0695,2.01757 0.0539,0.01 1.63441,0.0339 -0.27238,1.94117 -0.34023,0.0339 v 0.40841 l 1.05527,0.54432 -0.23801,1.56668 -0.71516,-0.0678 0.47659,0.88544 -0.54433,1.19174 h -0.0422 l -0.0882,0.12112 -0.30808,-0.0191 -0.19242,0.11523 -0.096,0.36536 0.71205,0.15382 0.47002,-0.0574 0.99711,-2.91136 v -1.32165 l -0.7433,-0.5778 0.28885,-1.98243 -0.5778,-0.7017 -0.78467,-0.20632 -0.0408,-1.40418 -1.27995,-1.11489 0.20643,-1.69303 -0.5778,-0.99099 0.24758,-1.40418 1.07352,-0.33022 1.23868,0.94972 0.5778,-0.53653 1.56935,0.28885 0.45401,1.03236 0.37148,0.33011 0.78456,-1.36292 1.52809,-0.16506 0.45401,0.61951 v 0.37148 l 0.7433,0.61918 -0.49528,0.5778 1.07363,1.40418 -0.24769,1.85864 -0.45401,-0.16517 -1.19742,-0.0408 -0.90847,0.33022 -1.03481,-0.49138 0.70037,1.62529 -0.12512,1.03404 1.4411,-1.97376 1.03359,0.72039 0.12513,0.72028 -0.68914,0.90846 0.34457,0.37583 0.72027,-0.8146 1.31565,0.65776 0.28195,1.50362 -0.564,0.78334 0.564,-0.0308 1.75431,0.75164 -0.21899,1.78568 1.00233,0.90846 -0.18763,1.09654 -0.43844,0.0625 -0.12512,1.75441 c -0.2398,0.27105 -1.16951,-0.0522 -1.19042,-0.31331 l 0.0939,-1.09654 -1.19041,-1.44111 0.3132,-1.09654 -0.53219,-1.06495 -1.22167,-0.46958 -0.18775,-0.62651 -1.28428,-0.84586 -0.97097,0.43833 -0.21899,0.75165 0.5639,-0.40708 0.43843,0.15638 0.5639,-0.21945 0.75163,0.4697 -0.68902,1.09654 -0.28206,-0.18764 -0.21888,0.12513 0.0313,0.28151 0.50094,0.68902 -0.12512,1.15916 -0.8146,0.28194 0.46959,0.72039 -0.75164,0.90846 -0.78334,-0.40707 -0.18763,0.37582 0.12512,0.53265 -0.5639,0.90846 h -0.37584 l -0.91324,-0.70993 0.0982,0.75553 0.23067,0.30709 0.92281,0.49972 1.15304,-1.23045 v -0.61518 h 0.92282 l 0.46134,-0.38405 v -1.30731 l 0.65344,-0.34578 c 0.0382,-0.99667 0.3202,-1.81047 0.76899,-2.4995 l 0.7304,0.30764 0.0769,0.42264 -0.26894,1.84563 1.15349,0.34579 0.11512,0.69213 -0.80715,1.2686 1.38417,1.1149 -0.76899,1.3073 -0.80726,0.30753 0.0764,0.23035 h 0.30765 l 0.80724,0.57646 -0.76898,1.42242 -1.2686,0.0382 v 0.53832 l -1.1149,1.42241 -1.57624,-0.26893 c -0.24324,0.74341 -0.55088,1.42243 -0.99966,1.96074 l -1.07664,-0.0382 0.23079,-0.99966 -0.96152,-0.0382 -1.80692,-0.99968 0.99967,-1.46112 h -0.15382 l -0.42265,0.42276 h -1.03792 l -0.99978,-0.26894 -0.19197,-0.69214 1.96119,-1.07652 0.84584,0.61517 0.49962,0.0382 0.8841,-0.53832 0.3845,-0.61483 0.38416,-0.0381 1.15304,0.1537 0.73029,-0.61516 0.11511,-0.46136 -0.57646,0.19197 -0.99978,-0.15381 -1.07652,-0.11512 -0.76855,0.99978 -0.57658,0.23067 -0.8077,-0.26938 -0.45356,-0.60304 -1.05093,0.84073 -1.07831,-0.42365 -0.28851,-0.71249 -0.78945,1.13614 c -1.13614,-0.60962 -2.0476,-1.31555 -2.46469,-2.23357 l -0.32711,0.73161 h -1.02057 l -0.57746,-0.28851 -0.4618,0.0382 -0.05772,0.59693 -0.327221,0.23068 -0.327105,0.30808 -0.404068,-0.0961 -0.808588,-0.69292 0.07697,-0.44277 0.558228,-1.11701 2.098874,-0.096 1.09754,-0.75075 0.51963,-0.96274 1.32855,-0.44278 0.80848,-0.84718 0.26938,-1.117 0.0305,0.003 0.40051,-2.00289 -0.57869,-0.64687 -0.23801,0.91924 c 0.10466,0.58571 -0.008,1.06274 -0.34023,1.43033 l 0.1021,0.64687 -0.68079,1.08964 -1.4985,-0.30631 v 1.43021 l -0.78334,0.98754 -2.213545,0.0339 -0.510511,-1.87298 -0.578686,0.13602 -0.442333,1.94072 h -0.715051 v -0.81726 l -0.476696,-0.1021 -0.238015,0.95328 -1.021464,0.5787 -1.123459,-0.23858 0.0338,1.15783 -1.123456,1.12357 -0.987544,-0.30631 0.374484,-1.08965 0.612615,-0.1021 1.089645,-1.83862 c 0.519628,-0.28284 0.899789,-0.80502 0.783337,-2.17972 l 0.0338,-1.43021 -0.374485,-0.30631 c 0.0022,0.44188 -0.06129,0.84373 -0.27194,1.15738 l -1.055723,1.56623 0.885441,-0.34012 0.442222,-0.20421 c 0.06306,0.25326 0.07296,0.52042 -0.0338,0.81716 l -0.3885,0.52664 -0.768995,0.086 -0.135912,0.95329 -0.272495,0.85107 -1.034367,-0.31798 v 0.86064 l -0.82816,1.35813 c -0.38661,-0.0114 -0.618174,0.13202 -0.82805,0.29796 l -0.430542,-0.46355 -0.06606,-0.69547 -0.993549,-0.9276 v -1.59014 l -0.861194,2.61672 0.397175,-0.19853 0.59604,0.46357 -0.364031,1.8552 0.960516,-0.66256 0.596151,0.92748 -0.265041,1.0267 -0.132132,0.69558 -0.563009,0.331 h -1.556667 l -0.165498,0.4966 0.430541,0.53009 0.03292,0.62907 -0.430541,0.76166 -1.623068,-0.36414 c -0.09732,1.08364 -0.970191,1.54676 -1.954286,1.92124 -0.739851,-0.35891 -1.236458,-0.7781 -1.623067,-1.22566 -0.220776,0.32021 -0.4858191,0.55177 -0.7951281,0.69558 H 8.8608016 c -0.341897,-0.2537 -0.640418,-0.59604 -0.894149,-1.02658 l -0.728618,0.26493 -0.728618,-0.36403 0.06606,-0.82805 c -1.96552,-0.45279 -2.782737,-1.56801 -2.451239,-3.34579 l 0.397075,-0.26504 c -0.794606,-1.38027 -1.19257,-2.40696 -1.19257,-3.08074 l 0.761605,-0.86109 1.490691,0.86109 0.36403,-2.28574 0.76165,-0.13212 0.795017,0.4966 -0.330998,1.06017 0.264487,0.72851 0.563119,0.36414 0.09913,1.39117 0.397063,0.56301 1.1591593,0.19852 0.5630071,-0.29796 1.490712,1.0931 0.59604,-0.033 0.861083,-1.5897 -0.927593,1.12612 h -0.430539 l -1.391169,-1.02669 -0.5960401,0.29807 -0.7286163,-0.19853 -0.596041,-0.46357 v -0.82805 l 0.198532,-0.39718 -0.530086,-0.26504 -0.264965,-0.62908 0.232044,-1.25859 -0.728652,-0.4301 0.496608,-1.6562 -0.52964,-0.39751 0.36403,-1.49071 1.225703,0.23156 0.397064,1.12613 0.03303,0.92759 0.8941164,0.62918 0.231565,0.36404 0.0991,1.92114 1.6561,0.52964 1.556667,1.12612 0.861194,-0.29807 0.02258,-0.11901 -0.314092,-0.20198 -0.655655,0.17851 -0.59604,-0.447 -0.38761,-0.65565 -1.550105,-0.32755 -0.35758,-0.56612 0.178512,-0.62607 0.327661,-0.4766 -0.08909,-0.38749 -1.132688,-0.65566 0.0595,-0.71516 0.655655,-0.14859 -1.1031031,-1.16261 c -0.1794013,-0.11077 -0.2115443,-0.38361 -0.09688,-0.73029 0.191191,-0.30852 0.4357701,-0.54699 0.7437431,-0.69992 l 1.68057,0.45268 0.934934,0.90591 0.905906,0.11678 0.686463,-1.0813 -0.54054,0.56957 c -0.209431,0.0946 -0.472249,0.002 -0.759425,-0.17507 -0.308864,-0.1021 -0.484373,-0.47181 -0.599155,-0.96407 -0.33578,0.19242 -0.725503,0.14381 -1.139584,-0.0144 -0.258035,-0.10689 -0.418752,-0.37015 -0.482259,-0.78902 -0.177622,-0.37748 -0.43577,-0.62084 -0.730286,-0.80368 l -0.8911124,-0.438 -0.175064,0.64253 0.248025,0.14603 c 0.2385723,0.10689 0.4966074,0.15549 0.7742184,0.14593 l 0.116895,0.11689 0.116894,0.80381 -0.204204,0.23368 -1.2143244,1.14481 -0.954065,-0.35758 0.268045,-0.59604 c -1.430686,-1.07308 -1.82864,-1.94773 -1.19267,-2.62374 0.158603,-0.59604 0.635635,-0.91413 1.430798,-0.95406 l 0.834612,0.50662 -0.545324,-1.32433 z m 0.140362,-9.37615 0.363697,2.58515 -1.346902,0.72805 -1.346825,-0.40051 -1.310309,0.91025 -0.218107,0.91013 0.473028,0.69169 -0.764541,0.98276 -0.691714,0.18163 -0.618685,-0.65521 0.291091,-0.94628 -0.618675,-0.72818 0.982761,-0.76421 -0.218107,-0.29107 0.07256,-1.5293 0.873729,-1.49283 1.201311,0.29108 0.582137,-0.47315 1.565377,0.40018 0.400178,-0.50963 0.327549,0.109 z m -4.18733,7.71872 c -0.546168,0.78857 -0.910243,1.6987 -0.873751,2.8761 l -0.98275,0.25458 -0.655177,-1.74741 0.582182,-0.61862 -0.400144,-0.80069 0.145546,-0.94672 1.201289,0.25459 0.691625,-0.0361 0.29118,0.76465 z m 0.436992,-1.41986 c 0.630852,-0.26671 1.067956,-0.53399 1.31031,-0.8007 l -0.655099,-0.76421 0.50962,-1.49237 1.164831,0.40017 c -0.200311,1.14037 -0.12735,2.22089 0.546135,3.16717 l -0.07262,3.20376 c -0.910165,0.14548 -1.432021,0.67946 -1.565377,1.60183 l -0.473139,0.43665 c -1.389837,-0.75209 -2.020657,-1.86865 -0.982763,-3.78634 l 0.65521,-0.21811 -0.436658,-1.7474 z m 0.930263,9.89756 0.499165,0.22678 -0.453564,1.72472 -1.951639,1.49761 -0.362774,-0.22678 0.0908,-2.76832 h 1.316038 l 0.544321,1.13435 z m 0.499165,-0.99845 0.635192,-0.90757 v -0.63519 l -1.361251,-1.27082 -0.453563,1.0892 -0.04516,0.81681 1.225224,0.90757 z m -0.816816,0.18163 -2.178388,1.0892 -0.771171,1.54321 0.544389,2.13314 h -0.271972 l -1.72439,-0.77156 -0.135981,-1.17996 c -0.151196,-0.71081 0.30238,-1.05883 0.816783,-1.0436 l 0.271972,-0.18117 -0.77116,-1.27083 0.271972,-0.95273 1.17999,-0.0909 0.271984,0.4084 0.635179,-1.22522 h 0.862351 l 0.27205,1.0436 0.725948,0.49928 z m -2.950427,4.85641 -0.453575,1.72483 0.18117,0.49917 -0.18117,0.90758 -1.67920104,-0.22679 -0.45357599,-0.63519 c -0.165966,-0.87766 0.21158999,-1.21043 1.13437903,-0.99833 l -0.317584,-1.40685 1.769991,0.13603 z m 0.771605,3.4044 -0.771171,2.08764 0.18117,0.6352 -0.317584,0.27193 -0.816794,0.0908 -0.680369,-0.81671 0.63519,-0.81681 -0.590001,-0.0451 -0.95277403,-1.22523 c 0.93930503,0.17896 1.39461603,0.0704 2.08758603,-0.18118 h 1.225181 z m -0.574352,2.96563 -0.213758,0.18341 -0.09167,0.42787 0.443144,0.48927 0.825481,0.0151 0.04562,-0.24458 -1.009265,-0.87154 z m 7.0913224,-27.45277 -0.3115331,0.3637 -0.5713493,-0.93505 0.4936053,-0.779 1.3507941,0.0778 1.19475,-1.03881 0.908909,0.38927 0.727282,-0.85675 0.675119,0.20766 0.129463,-0.59738 0.493493,-0.67512 0.908909,-0.1556 0.311534,0.62307 0.1556,0.67512 0.129907,0.33756 0.934936,-0.6491 1.064841,1.09099 0.389278,-0.83116 1.064842,0.49315 -0.363586,0.9871 0.622956,-0.3637 0.961072,0.41541 0.129907,0.44134 0.519185,-0.67512 0.831166,-0.23379 0.675117,0.23379 0.05172,0.51918 -0.571348,-0.10344 -0.10388,0.36371 -0.779002,0.779 -0.233678,0.6751 h -1.324657 l -0.389278,0.12992 -0.207652,-0.23379 -0.207763,-0.9871 -0.934935,-1.0387 -1.324658,-0.10388 -0.752975,0.31154 -0.285396,-0.23381 -0.779001,-0.5452 -0.571349,-0.18163 -1.220776,0.59737 -0.856745,1.16874 -1.974196,-0.0255 -0.961072,0.36357 z m 13.320648,23.56656 0.181514,-0.80859 -0.141138,-0.54565 0.424423,-0.28284 1.597149,0.0399 0.363591,-0.36359 0.181624,-0.60649 -0.323215,0.20197 h -1.900341 l -0.323215,0.34368 -0.848957,0.0403 -0.161606,0.88934 -0.687355,0.84896 0.282841,0.18162 0.687352,0.24247 0.666891,-0.18163 z m 0.546102,0.22244 0.707262,-1.19264 h 0.97019 l -0.26248,1.55623 -0.808478,-0.0404 z m 7.680786,1.38205 c 0.16428,-0.007 0.55356,-0.77777 0.83028,-1.16705 l -1.23424,-0.17941 c 0.13459,0.44878 0.13459,1.18953 0.40352,1.34646 z m -0.13469,1.61617 1.92993,-1.34646 0.29152,1.12224 c 0.65821,0.26938 1.31643,0.441 1.97508,0.47102 l 0.53876,1.9524 h -1.00978 l -0.44878,-0.7403 -0.67335,-0.13468 -0.26938,0.29151 h -0.31409 l -2.0872,-1.39162 z m 16.23368,-0.24981 c 0.66655,-0.24769 1.1279,-0.59826 1.38427,-1.05093 l 1.02535,-0.0253 0.0769,0.64086 -0.66644,1.28162 -1.17918,0.0766 -0.7433,-0.66612 0.10244,-0.25625 z m 2.71716,-1.10265 0.20509,0.33278 0.69214,0.0769 0.48693,-0.58948 0.58959,-1.28173 c 0.0253,-0.1794 -0.0169,-0.32454 -0.12769,-0.43576 l -0.46146,0.077 -0.38405,-0.87153 -0.0251,-0.4102 -0.25637,-0.33321 h -1.02536 l 0.15338,1.46113 0.33322,0.89712 -0.1794,1.07663 z m -4.17818,1.9485 0.64075,-1.66611 1.20443,0.0256 0.46135,-0.66644 v -0.56346 l -0.89712,-0.56401 0.46135,-1.25603 0.0253,-0.43577 -0.43577,-0.79457 0.89712,0.87154 0.1021,1.51229 0.5639,0.82026 0.1021,0.28207 0.15382,0.0251 0.33278,-0.58959 -0.0251,-0.28196 -0.48704,-0.10254 v -0.20498 l 0.28195,-0.4102 0.10254,-1.71737 0.15382,-0.53832 -0.25636,-0.33278 h -0.76855 l 0.20509,-1.02536 0.0251,-0.28195 -1.43543,-0.0766 c -0.0253,1.09354 -0.49528,1.777 -1.40986,2.05072 l 0.17896,1.81994 -0.58948,0.71726 0.28151,1.46113 -1.07664,1.15305 -0.61517,-0.28151 -0.28195,0.15338 0.10255,0.79457 1.23034,0.38449 0.76899,-0.28194 z m 2.24869,-10.47314 0.31421,0.2794 -0.0695,-1.0475 -1.22223,-0.13947 -0.20931,0.69814 1.18729,0.20943 z m -0.73328,-2.20008 1.11744,-0.66344 0.0695,-0.90758 0.27928,-0.62818 h 0.69825 l 0.52353,-0.59348 -0.94283,-0.80292 -0.90758,-0.52352 -0.0695,-0.62829 -0.27938,-0.10467 -1.36158,1.99022 -0.87288,0.0348 -0.17418,0.80336 v 0.97754 l 0.3141,-0.1743 c 0.53531,0.40708 1.001,1.12925 1.60626,1.22222 z m -1.92081,-3.17807 1.0823,-0.48882 0.17417,-1.67612 -0.52352,-0.97753 0.48882,-0.10478 0.45357,-0.59348 v -0.45356 l -0.52352,-0.8028 h -0.52353 l -0.13947,-0.17429 0.13947,-0.55823 -0.13947,-0.38404 -1.5015,-0.48883 -0.55878,0.41887 -0.10466,0.87276 0.55866,1.15226 v 0.73329 l -0.20943,0.66344 -0.52352,1.22222 0.0348,1.04738 1.81559,0.59349 z m 1.57145,-2.96874 1.0128,-0.97754 0.73328,-0.24413 0.0348,0.94283 -1.04749,1.04738 -0.7334,-0.7681 z m -3.1081,-3.8067 c 0.97753,-0.54132 1.95551,-0.64609 2.93349,0.20943 l 0.10421,-0.83772 -0.20943,-0.41876 0.13947,-0.45356 0.13947,-0.80292 -0.97753,-0.0348 c -0.7681,-0.52352 -1.44322,-0.67512 -2.02547,-0.45356 l -0.10466,2.79357 z m -1.09054,-1.03358 0.0305,-0.95107 1.04305,-1.47236 0.0918,-0.98154 h -1.10444 l -0.7056,-1.16562 -0.4292,-0.24501 -0.39885,0.0917 -0.42921,0.67478 0.67468,0.76677 0.0917,0.52141 -0.24502,0.39884 -1.41108,-1.13491 -0.42932,0.24514 -0.5213,-0.18387 0.0917,-0.36791 -1.1348,-0.64431 -0.0613,0.49049 -1.56446,0.0303 -0.46013,1.01234 -1.84084,-0.27593 -0.76677,0.36803 c 0.0203,-0.23502 0.16373,-0.47014 0.42921,-0.70559 l 0.82805,-0.46013 c 0.24503,-0.0508 0.49049,-0.0199 0.73596,0.0918 l 0.4906,0.0304 0.95095,-0.67467 0.33723,-0.30676 -0.15338,-0.30676 -0.49049,-0.21464 -1.50328,-0.15338 -0.18374,0.15338 -2.0555,-0.79724 c -0.0917,0.65432 -0.0203,1.30908 0.21466,1.9634 l -0.30675,1.56445 0.39884,0.21466 c 0.005,1.15049 0.74119,1.56967 1.80992,1.65655 l 1.16572,-0.0917 1.04316,0.58259 c 0.84851,-0.22456 1.69736,-0.0817 2.54632,0.42932 l 1.1348,-0.42932 c 0,-0.35747 -0.12246,-0.59259 -0.36792,-0.70548 l -0.64432,-0.18385 -0.46012,0.21466 c -0.21466,-0.24503 -0.47003,-0.40887 -0.76676,-0.49049 l -1.3191,-0.42932 0.42932,-0.49049 1.01223,0.0305 0.98142,0.70548 0.52141,-0.21454 1.19654,0.33711 -0.15338,1.07352 1.65654,0.42931 z m -13.74552,-6.87276 0.64431,-0.73596 -1.47236,-0.4906 -0.613496,0.67478 c 0.08175,0.2963 0.327216,0.42921 0.735956,0.39884 l 0.70559,0.15338 z m 2.30141,-0.36849 c 0.18374,0.33723 0.30665,0.88978 0.55211,1.01235 0.15338,0.13247 0.22467,0.14291 0.46013,0.0303 l 0.24502,-0.70549 -0.21455,-0.39884 -1.16572,-0.76688 -0.15337,0.73596 0.27594,0.0916 z m 3.46692,1.38072 0.82816,-0.0612 0.39884,-1.56456 -0.24502,-0.55222 -1.07363,0.24502 -0.18374,1.10442 c 0.18374,0.12259 0.18374,0.55224 0.27583,0.82807 z m 1.68746,0.24591 1.19653,-0.15337 -0.21466,-0.88978 c -0.0712,-0.23502 -0.26582,-0.30664 -0.58258,-0.21455 l -0.49049,0.36793 0.0917,0.88977 z m 3.03737,0.21466 1.16561,0.52129 -0.30664,0.76688 -0.42932,-0.0303 -0.4292,-0.55223 -0.33712,-0.27594 0.33712,-0.42921 z m 1.53409,0.36804 1.2269,-0.30675 -0.39885,-1.16572 -0.49049,-0.0917 -0.5213,0.61351 0.0612,0.36793 z m -12.19063,11.85073 0.97408,0.73907 -0.16983,1.43021 1.05527,0.81726 -0.4084,1.53231 -0.40841,0.34067 -0.5104,0.27194 -0.27294,-0.0578 v -0.38761 l 0.28684,-0.16372 0.32755,-0.98275 -0.61439,-0.7373 -0.36837,-0.36848 0.20465,-0.65509 c 0.12245,-0.76432 -0.13647,-1.09187 -0.77811,-0.98277 l -0.2864,-0.20465 -0.0816,-1.88388 -1.064839,-0.32755 0.327552,-0.49138 1.679237,0.90112 0.0408,1.18775 0.0686,0.0234"
       id="path2394" />
    <path
       id="path4169"
       d="m 8.9607746,246.00705 c -0.141141,-0.68813 -0.177177,-1.29162 -0.08508,-1.79301 l 1.8785454,0.64041 -1.4089654,-1.75041 c -0.156379,-0.61172 -0.02825,-1.16661 0.3840513,-1.66489 l -0.8536313,0.51218 v 0.72562 l -0.597375,-0.38405 c -0.09954,-0.46969 -0.170838,-0.93894 -0.0426,-1.40897 0.156378,-0.42664 0.426648,-0.85374 0.811144,-1.28084 l 1.0244684,-0.0426 0.170726,-0.25592 c -0.4344341,-1.01612 -0.3358911,-2.83617 0.170726,-3.11634 l 0.59782,-0.38405 1.280836,0.12768 1.365921,0.59738 0.127683,-1.36593 0.768212,-0.7255 0.811033,0.0851 0.981983,0.51229 -0.0426,1.28073 0.768101,-1.15261 1.067066,-0.42665 0.981872,0.81115 c 0.298854,0.76811 0.22767,1.66489 -0.384051,2.43343 l -0.683017,0.55478 0.597376,0.17073 v 0.81114 l 0.640418,0.0852 0.768099,0.59782 -0.255808,0.93882 0.896228,0.25593 0.341452,0.7681 -0.08508,1.28084 -0.469692,0.21333 0.51229,0.46968 v 1.8781 l 0.811145,-0.12768 0.98187,0.98187 -0.341567,0.93894 -1.280721,0.59737 0.0664,0.34968 1.070179,-0.35624 c 0.177177,-0.31364 0.354466,-0.46402 0.532197,-0.45056 l 0.614284,-0.94183 c -0.06818,-0.96931 -0.573015,-1.50195 -1.515405,-1.5976 -0.313646,-0.0269 -0.409297,-0.21811 -0.286286,-0.57301 0.109,-0.27284 0.109,-0.54611 0,-0.81893 -0.272827,-0.24547 -0.272827,-0.54622 0,-0.90113 0.245467,-1.41286 -0.258923,-1.99978 -1.10566,-2.21187 v -0.81891 c -0.02702,-0.25892 -0.218107,-0.46401 -0.573129,-0.61383 l -0.573017,-0.28685 -0.286731,-1.18773 c 0.723391,-0.6144 1.665665,-0.90114 2.826158,-0.85987 0.409297,0.10911 0.655098,0.0544 0.737294,-0.16372 l 0.16372,-1.35168 1.105769,0.24547 0.532199,-0.28675 -0.122567,-1.26949 0.655209,-0.85973 0.778115,0.36837 0.409298,0.73728 0.573016,-0.0403 0.901121,0.65509 0.144704,0.43411 0.426534,-0.92192 -0.536981,-0.81638 -0.988318,0.043 -0.34368,-0.45101 -0.816373,-0.49405 -0.902342,0.15037 -0.60138,0.62307 -0.49394,0.0425 -0.752083,-0.47269 0.171614,-1.332 c 0.300634,-0.18597 0.687357,-0.28629 1.160053,-0.30063 l 0.429202,0.12856 0.60138,-0.53697 0.687241,-0.0214 c 0.569126,0.48882 1.185183,0.90769 1.869092,1.22478 l -0.06429,0.85942 0.429208,-0.34368 1.181737,0.32188 0.64431,0.0426 0.34367,-0.68735 0.5153,-0.0855 0.27939,1.05272 1.13869,0.32187 0.81637,0.64431 -0.34367,0.49405 0.36492,0.62296 -0.0855,0.70904 -0.36503,0.12868 -0.66555,-0.60138 -0.0213,0.49405 -0.75209,-0.10733 -1.16005,-0.75208 -1.09565,-0.0643 -0.31376,0.38705 h 1.22778 l 0.32767,0.53231 0.32755,0.40919 -0.27806,1.39028 0.0964,0.59871 0.18118,0.14081 1.59704,1.43321 0.16383,-0.28629 -1.47458,-1.55622 0.61439,-1.59704 1.63831,0.69636 0.20464,0.98276 0.81893,0.69602 0.20465,0.98277 -0.4093,0.45056 0.0817,0.32755 0.61428,0.61395 0.16339,1.26994 -0.5322,0.77811 h -0.81894 l -0.20464,-0.20465 -1.55623,0.28628 -0.16383,0.20466 1.26949,0.0816 0.90101,1.02369 0.6144,-0.65521 0.49138,-0.16339 0.86019,0.12257 0.0695,2.01757 0.0539,0.01 1.63441,0.0339 -0.27238,1.94117 -0.34023,0.0339 v 0.40841 l 1.05527,0.54432 -0.23801,1.56668 -0.71516,-0.0678 0.47659,0.88544 -0.54433,1.19174 h -0.0422 l -0.0882,0.12112 -0.30808,-0.0191 -0.19242,0.11523 -0.096,0.36536 0.71205,0.15382 0.47002,-0.0574 0.99711,-2.91136 v -1.32165 l -0.7433,-0.5778 0.28885,-1.98243 -0.5778,-0.7017 -0.78467,-0.20632 -0.0408,-1.40418 -1.27995,-1.11489 0.20643,-1.69303 -0.5778,-0.99099 0.24758,-1.40418 1.07352,-0.33022 1.23868,0.94972 0.5778,-0.53653 1.56935,0.28885 0.45401,1.03236 0.37148,0.33011 0.78456,-1.36292 1.52809,-0.16506 0.45401,0.61951 v 0.37148 l 0.7433,0.61918 -0.49528,0.5778 1.07363,1.40418 -0.24769,1.85864 -0.45401,-0.16517 -1.19742,-0.0408 -0.90847,0.33022 -1.03481,-0.49138 0.70037,1.62529 -0.12512,1.03404 1.4411,-1.97376 1.03359,0.72039 0.12513,0.72028 -0.68914,0.90846 0.34457,0.37583 0.72027,-0.8146 1.31565,0.65776 0.28195,1.50362 -0.564,0.78334 0.564,-0.0308 1.75431,0.75164 -0.21899,1.78568 1.00233,0.90846 -0.18763,1.09654 -0.43844,0.0625 -0.12512,1.75441 c -0.2398,0.27105 -1.16951,-0.0522 -1.19042,-0.31331 l 0.0939,-1.09654 -1.19041,-1.44111 0.3132,-1.09654 -0.53219,-1.06495 -1.22167,-0.46958 -0.18775,-0.62651 -1.28428,-0.84586 -0.97097,0.43833 -0.21899,0.75165 0.5639,-0.40708 0.43843,0.15638 0.5639,-0.21945 0.75163,0.4697 -0.68902,1.09654 -0.28206,-0.18764 -0.21888,0.12513 0.0313,0.28151 0.50094,0.68902 -0.12512,1.15916 -0.8146,0.28194 0.46959,0.72039 -0.75164,0.90846 -0.78334,-0.40707 -0.18763,0.37582 0.12512,0.53265 -0.5639,0.90846 h -0.37584 l -0.91324,-0.70993 0.0982,0.75553 0.23067,0.30709 0.92281,0.49972 1.15304,-1.23045 v -0.61518 h 0.92282 l 0.46134,-0.38405 v -1.30731 l 0.65344,-0.34578 c 0.0382,-0.99667 0.3202,-1.81047 0.76899,-2.4995 l 0.7304,0.30764 0.0769,0.42264 -0.26894,1.84563 1.15349,0.34579 0.11512,0.69213 -0.80715,1.2686 1.38417,1.1149 -0.76899,1.3073 -0.80726,0.30753 0.0764,0.23035 h 0.30765 l 0.80724,0.57646 -0.76898,1.42242 -1.2686,0.0382 v 0.53832 l -1.1149,1.42241 -1.57624,-0.26893 c -0.24324,0.74341 -0.55088,1.42243 -0.99966,1.96074 l -1.07664,-0.0382 0.23079,-0.99966 -0.96152,-0.0382 -1.80692,-0.99968 0.99967,-1.46112 h -0.15382 l -0.42265,0.42276 h -1.03792 l -0.99978,-0.26894 -0.19197,-0.69214 1.96119,-1.07652 0.84584,0.61517 0.49962,0.0382 0.8841,-0.53832 0.3845,-0.61483 0.38416,-0.0381 1.15304,0.1537 0.73029,-0.61516 0.11511,-0.46136 -0.57646,0.19197 -0.99978,-0.15381 -1.07652,-0.11512 -0.76855,0.99978 -0.57658,0.23067 -0.8077,-0.26938 -0.45356,-0.60304 -1.05093,0.84073 -1.07831,-0.42365 -0.28851,-0.71249 -0.78945,1.13614 c -1.13614,-0.60962 -2.0476,-1.31555 -2.46469,-2.23357 l -0.32711,0.73161 h -1.02057 l -0.57746,-0.28851 -0.4618,0.0382 -0.05772,0.59693 -0.327221,0.23068 -0.327105,0.30808 -0.404068,-0.0961 -0.808588,-0.69292 0.07697,-0.44277 0.558228,-1.11701 2.098874,-0.096 1.09754,-0.75075 0.51963,-0.96274 1.32855,-0.44278 0.80848,-0.84718 0.26938,-1.117 0.0305,0.003 0.40051,-2.00289 -0.57869,-0.64687 -0.23801,0.91924 c 0.10466,0.58571 -0.008,1.06274 -0.34023,1.43033 l 0.1021,0.64687 -0.68079,1.08964 -1.4985,-0.30631 v 1.43021 l -0.78334,0.98754 -2.213545,0.0339 -0.510511,-1.87298 -0.578686,0.13602 -0.442333,1.94072 h -0.715051 v -0.81726 l -0.476696,-0.1021 -0.238015,0.95328 -1.021464,0.5787 -1.123459,-0.23858 0.0338,1.15783 -1.123456,1.12357 -0.987544,-0.30631 0.374484,-1.08965 0.612615,-0.1021 1.089645,-1.83862 c 0.519628,-0.28284 0.899789,-0.80502 0.783337,-2.17972 l 0.0338,-1.43021 -0.374485,-0.30631 c 0.0022,0.44188 -0.06129,0.84373 -0.27194,1.15738 l -1.055723,1.56623 0.885441,-0.34012 0.442222,-0.20421 c 0.06306,0.25326 0.07296,0.52042 -0.0338,0.81716 l -0.3885,0.52664 -0.768995,0.086 -0.135912,0.95329 -0.272495,0.85107 -1.034367,-0.31798 v 0.86064 l -0.82816,1.35813 c -0.38661,-0.0114 -0.618174,0.13202 -0.82805,0.29796 l -0.430542,-0.46355 -0.06606,-0.69547 -0.993549,-0.9276 v -1.59014 l -0.861194,2.61672 0.397175,-0.19853 0.59604,0.46357 -0.364031,1.8552 0.960516,-0.66256 0.596151,0.92748 -0.265041,1.0267 -0.132132,0.69558 -0.563009,0.331 h -1.556667 l -0.165498,0.4966 0.430541,0.53009 0.03292,0.62907 -0.430541,0.76166 -1.623068,-0.36414 c -0.09732,1.08364 -0.970191,1.54676 -1.954286,1.92124 -0.739851,-0.35891 -1.236458,-0.7781 -1.623067,-1.22566 -0.220776,0.32021 -0.4858191,0.55177 -0.7951281,0.69558 H 8.8608016 c -0.341897,-0.2537 -0.640418,-0.59604 -0.894149,-1.02658 l -0.728618,0.26493 -0.728618,-0.36403 0.06606,-0.82805 c -1.96552,-0.45279 -2.782737,-1.56801 -2.451239,-3.34579 l 0.397075,-0.26504 c -0.794606,-1.38027 -1.19257,-2.40696 -1.19257,-3.08074 l 0.761605,-0.86109 1.490691,0.86109 0.36403,-2.28574 0.76165,-0.13212 0.795017,0.4966 -0.330998,1.06017 0.264487,0.72851 0.563119,0.36414 0.09913,1.39117 0.397063,0.56301 1.1591593,0.19852 0.5630071,-0.29796 1.490712,1.0931 0.59604,-0.033 0.861083,-1.5897 -0.927593,1.12612 h -0.430539 l -1.391169,-1.02669 -0.5960401,0.29807 -0.7286163,-0.19853 -0.596041,-0.46357 v -0.82805 l 0.198532,-0.39718 -0.530086,-0.26504 -0.264965,-0.62908 0.232044,-1.25859 -0.728652,-0.4301 0.496608,-1.6562 -0.52964,-0.39751 0.36403,-1.49071 1.225703,0.23156 0.397064,1.12613 0.03303,0.92759 0.8941164,0.62918 0.231565,0.36404 0.0991,1.92114 1.6561,0.52964 1.556667,1.12612 0.861194,-0.29807 0.02258,-0.11901 -0.314092,-0.20198 -0.655655,0.17851 -0.59604,-0.447 -0.38761,-0.65565 -1.550105,-0.32755 -0.35758,-0.56612 0.178512,-0.62607 0.327661,-0.4766 -0.08909,-0.38749 -1.132688,-0.65566 0.0595,-0.71516 0.655655,-0.14859 -1.1031031,-1.16261 c -0.1794013,-0.11077 -0.2115443,-0.38361 -0.09688,-0.73029 0.191191,-0.30852 0.4357701,-0.54699 0.7437431,-0.69992 l 1.68057,0.45268 0.934934,0.90591 0.905906,0.11678 0.686463,-1.0813 -0.54054,0.56957 c -0.209431,0.0946 -0.472249,0.002 -0.759425,-0.17507 -0.308864,-0.1021 -0.484373,-0.47181 -0.599155,-0.96407 -0.33578,0.19242 -0.725503,0.14381 -1.139584,-0.0144 -0.258035,-0.10689 -0.418752,-0.37015 -0.482259,-0.78902 -0.177622,-0.37748 -0.43577,-0.62084 -0.730286,-0.80368 l -0.8911124,-0.438 -0.175064,0.64253 0.248025,0.14603 c 0.2385723,0.10689 0.4966074,0.15549 0.7742184,0.14593 l 0.116895,0.11689 0.116894,0.80381 -0.204204,0.23368 -1.2143244,1.14481 -0.954065,-0.35758 0.268045,-0.59604 c -1.430686,-1.07308 -1.82864,-1.94773 -1.19267,-2.62374 0.158603,-0.59604 0.635635,-0.91413 1.430798,-0.95406 l 0.834612,0.50662 -0.545324,-1.32433 z m 0.140362,-9.37615 0.363697,2.58515 -1.346902,0.72805 -1.346825,-0.40051 -1.310309,0.91025 -0.218107,0.91013 0.473028,0.69169 -0.764541,0.98276 -0.691714,0.18163 -0.618685,-0.65521 0.291091,-0.94628 -0.618675,-0.72818 0.982761,-0.76421 -0.218107,-0.29107 0.07256,-1.5293 0.873729,-1.49283 1.201311,0.29108 0.582137,-0.47315 1.565377,0.40018 0.400178,-0.50963 0.327549,0.109 z m -4.18733,7.71872 c -0.546168,0.78857 -0.910243,1.6987 -0.873751,2.8761 l -0.98275,0.25458 -0.655177,-1.74741 0.582182,-0.61862 -0.400144,-0.80069 0.145546,-0.94672 1.201289,0.25459 0.691625,-0.0361 0.29118,0.76465 z m 0.436992,-1.41986 c 0.630852,-0.26671 1.067956,-0.53399 1.31031,-0.8007 l -0.655099,-0.76421 0.50962,-1.49237 1.164831,0.40017 c -0.200311,1.14037 -0.12735,2.22089 0.546135,3.16717 l -0.07262,3.20376 c -0.910165,0.14548 -1.432021,0.67946 -1.565377,1.60183 l -0.473139,0.43665 c -1.389837,-0.75209 -2.020657,-1.86865 -0.982763,-3.78634 l 0.65521,-0.21811 -0.436658,-1.7474 z m 0.930263,9.89756 0.499165,0.22678 -0.453564,1.72472 -1.951639,1.49761 -0.362774,-0.22678 0.0908,-2.76832 h 1.316038 l 0.544321,1.13435 z m 0.499165,-0.99845 0.635192,-0.90757 v -0.63519 l -1.361251,-1.27082 -0.453563,1.0892 -0.04516,0.81681 1.225224,0.90757 z m -0.816816,0.18163 -2.178388,1.0892 -0.771171,1.54321 0.544389,2.13314 h -0.271972 l -1.72439,-0.77156 -0.135981,-1.17996 c -0.151196,-0.71081 0.30238,-1.05883 0.816783,-1.0436 l 0.271972,-0.18117 -0.77116,-1.27083 0.271972,-0.95273 1.17999,-0.0909 0.271984,0.4084 0.635179,-1.22522 h 0.862351 l 0.27205,1.0436 0.725948,0.49928 z m -2.950427,4.85641 -0.453575,1.72483 0.18117,0.49917 -0.18117,0.90758 -1.67920104,-0.22679 -0.45357599,-0.63519 c -0.165966,-0.87766 0.21158999,-1.21043 1.13437903,-0.99833 l -0.317584,-1.40685 1.769991,0.13603 z m 0.771605,3.4044 -0.771171,2.08764 0.18117,0.6352 -0.317584,0.27193 -0.816794,0.0908 -0.680369,-0.81671 0.63519,-0.81681 -0.590001,-0.0451 -0.95277403,-1.22523 c 0.93930503,0.17896 1.39461603,0.0704 2.08758603,-0.18118 h 1.225181 z m -0.574352,2.96563 -0.213758,0.18341 -0.09167,0.42787 0.443144,0.48927 0.825481,0.0151 0.04562,-0.24458 -1.009265,-0.87154 z m 7.0913224,-27.45277 -0.3115331,0.3637 -0.5713493,-0.93505 0.4936053,-0.779 1.3507941,0.0778 1.19475,-1.03881 0.908909,0.38927 0.727282,-0.85675 0.675119,0.20766 0.129463,-0.59738 0.493493,-0.67512 0.908909,-0.1556 0.311534,0.62307 0.1556,0.67512 0.129907,0.33756 0.934936,-0.6491 1.064841,1.09099 0.389278,-0.83116 1.064842,0.49315 -0.363586,0.9871 0.622956,-0.3637 0.961072,0.41541 0.129907,0.44134 0.519185,-0.67512 0.831166,-0.23379 0.675117,0.23379 0.05172,0.51918 -0.571348,-0.10344 -0.10388,0.36371 -0.779002,0.779 -0.233678,0.6751 h -1.324657 l -0.389278,0.12992 -0.207652,-0.23379 -0.207763,-0.9871 -0.934935,-1.0387 -1.324658,-0.10388 -0.752975,0.31154 -0.285396,-0.23381 -0.779001,-0.5452 -0.571349,-0.18163 -1.220776,0.59737 -0.856745,1.16874 -1.974196,-0.0255 -0.961072,0.36357 z m 13.320648,23.56656 0.181514,-0.80859 -0.141138,-0.54565 0.424423,-0.28284 1.597149,0.0399 0.363591,-0.36359 0.181624,-0.60649 -0.323215,0.20197 h -1.900341 l -0.323215,0.34368 -0.848957,0.0403 -0.161606,0.88934 -0.687355,0.84896 0.282841,0.18162 0.687352,0.24247 0.666891,-0.18163 z m 0.546102,0.22244 0.707262,-1.19264 h 0.97019 l -0.26248,1.55623 -0.808478,-0.0404 z m 7.680786,1.38205 c 0.16428,-0.007 0.55356,-0.77777 0.83028,-1.16705 l -1.23424,-0.17941 c 0.13459,0.44878 0.13459,1.18953 0.40352,1.34646 z m -0.13469,1.61617 1.92993,-1.34646 0.29152,1.12224 c 0.65821,0.26938 1.31643,0.441 1.97508,0.47102 l 0.53876,1.9524 h -1.00978 l -0.44878,-0.7403 -0.67335,-0.13468 -0.26938,0.29151 h -0.31409 l -2.0872,-1.39162 z m 16.23368,-0.24981 c 0.66655,-0.24769 1.1279,-0.59826 1.38427,-1.05093 l 1.02535,-0.0253 0.0769,0.64086 -0.66644,1.28162 -1.17918,0.0766 -0.7433,-0.66612 0.10244,-0.25625 z m 2.71716,-1.10265 0.20509,0.33278 0.69214,0.0769 0.48693,-0.58948 0.58959,-1.28173 c 0.0253,-0.1794 -0.0169,-0.32454 -0.12769,-0.43576 l -0.46146,0.077 -0.38405,-0.87153 -0.0251,-0.4102 -0.25637,-0.33321 h -1.02536 l 0.15338,1.46113 0.33322,0.89712 -0.1794,1.07663 z m -4.17818,1.9485 0.64075,-1.66611 1.20443,0.0256 0.46135,-0.66644 v -0.56346 l -0.89712,-0.56401 0.46135,-1.25603 0.0253,-0.43577 -0.43577,-0.79457 0.89712,0.87154 0.1021,1.51229 0.5639,0.82026 0.1021,0.28207 0.15382,0.0251 0.33278,-0.58959 -0.0251,-0.28196 -0.48704,-0.10254 v -0.20498 l 0.28195,-0.4102 0.10254,-1.71737 0.15382,-0.53832 -0.25636,-0.33278 h -0.76855 l 0.20509,-1.02536 0.0251,-0.28195 -1.43543,-0.0766 c -0.0253,1.09354 -0.49528,1.777 -1.40986,2.05072 l 0.17896,1.81994 -0.58948,0.71726 0.28151,1.46113 -1.07664,1.15305 -0.61517,-0.28151 -0.28195,0.15338 0.10255,0.79457 1.23034,0.38449 0.76899,-0.28194 z m 2.24869,-10.47314 0.31421,0.2794 -0.0695,-1.0475 -1.22223,-0.13947 -0.20931,0.69814 1.18729,0.20943 z m -0.73328,-2.20008 1.11744,-0.66344 0.0695,-0.90758 0.27928,-0.62818 h 0.69825 l 0.52353,-0.59348 -0.94283,-0.80292 -0.90758,-0.52352 -0.0695,-0.62829 -0.27938,-0.10467 -1.36158,1.99022 -0.87288,0.0348 -0.17418,0.80336 v 0.97754 l 0.3141,-0.1743 c 0.53531,0.40708 1.001,1.12925 1.60626,1.22222 z m -1.92081,-3.17807 1.0823,-0.48882 0.17417,-1.67612 -0.52352,-0.97753 0.48882,-0.10478 0.45357,-0.59348 v -0.45356 l -0.52352,-0.8028 h -0.52353 l -0.13947,-0.17429 0.13947,-0.55823 -0.13947,-0.38404 -1.5015,-0.48883 -0.55878,0.41887 -0.10466,0.87276 0.55866,1.15226 v 0.73329 l -0.20943,0.66344 -0.52352,1.22222 0.0348,1.04738 1.81559,0.59349 z m 1.57145,-2.96874 1.0128,-0.97754 0.73328,-0.24413 0.0348,0.94283 -1.04749,1.04738 -0.7334,-0.7681 z m -3.1081,-3.8067 c 0.97753,-0.54132 1.95551,-0.64609 2.93349,0.20943 l 0.10421,-0.83772 -0.20943,-0.41876 0.13947,-0.45356 0.13947,-0.80292 -0.97753,-0.0348 c -0.7681,-0.52352 -1.44322,-0.67512 -2.02547,-0.45356 l -0.10466,2.79357 z m -1.09054,-1.03358 0.0305,-0.95107 1.04305,-1.47236 0.0918,-0.98154 h -1.10444 l -0.7056,-1.16562 -0.4292,-0.24501 -0.39885,0.0917 -0.42921,0.67478 0.67468,0.76677 0.0917,0.52141 -0.24502,0.39884 -1.41108,-1.13491 -0.42932,0.24514 -0.5213,-0.18387 0.0917,-0.36791 -1.1348,-0.64431 -0.0613,0.49049 -1.56446,0.0303 -0.46013,1.01234 -1.84084,-0.27593 -0.76677,0.36803 c 0.0203,-0.23502 0.16373,-0.47014 0.42921,-0.70559 l 0.82805,-0.46013 c 0.24503,-0.0508 0.49049,-0.0199 0.73596,0.0918 l 0.4906,0.0304 0.95095,-0.67467 0.33723,-0.30676 -0.15338,-0.30676 -0.49049,-0.21464 -1.50328,-0.15338 -0.18374,0.15338 -2.0555,-0.79724 c -0.0917,0.65432 -0.0203,1.30908 0.21466,1.9634 l -0.30675,1.56445 0.39884,0.21466 c 0.005,1.15049 0.74119,1.56967 1.80992,1.65655 l 1.16572,-0.0917 1.04316,0.58259 c 0.84851,-0.22456 1.69736,-0.0817 2.54632,0.42932 l 1.1348,-0.42932 c 0,-0.35747 -0.12246,-0.59259 -0.36792,-0.70548 l -0.64432,-0.18385 -0.46012,0.21466 c -0.21466,-0.24503 -0.47003,-0.40887 -0.76676,-0.49049 l -1.3191,-0.42932 0.42932,-0.49049 1.01223,0.0305 0.98142,0.70548 0.52141,-0.21454 1.19654,0.33711 -0.15338,1.07352 1.65654,0.42931 z m -13.74552,-6.87276 0.64431,-0.73596 -1.47236,-0.4906 -0.613496,0.67478 c 0.08175,0.2963 0.327216,0.42921 0.735956,0.39884 l 0.70559,0.15338 z m 2.30141,-0.36849 c 0.18374,0.33723 0.30665,0.88978 0.55211,1.01235 0.15338,0.13247 0.22467,0.14291 0.46013,0.0303 l 0.24502,-0.70549 -0.21455,-0.39884 -1.16572,-0.76688 -0.15337,0.73596 0.27594,0.0916 z m 3.46692,1.38072 0.82816,-0.0612 0.39884,-1.56456 -0.24502,-0.55222 -1.07363,0.24502 -0.18374,1.10442 c 0.18374,0.12259 0.18374,0.55224 0.27583,0.82807 z m 1.68746,0.24591 1.19653,-0.15337 -0.21466,-0.88978 c -0.0712,-0.23502 -0.26582,-0.30664 -0.58258,-0.21455 l -0.49049,0.36793 0.0917,0.88977 z m 3.03737,0.21466 1.16561,0.52129 -0.30664,0.76688 -0.42932,-0.0303 -0.4292,-0.55223 -0.33712,-0.27594 0.33712,-0.42921 z m 1.53409,0.36804 1.2269,-0.30675 -0.39885,-1.16572 -0.49049,-0.0917 -0.5213,0.61351 0.0612,0.36793 z m -12.19063,11.85073 0.97408,0.73907 -0.16983,1.43021 1.05527,0.81726 -0.4084,1.53231 -0.40841,0.34067 -0.5104,0.27194 -0.27294,-0.0578 v -0.38761 l 0.28684,-0.16372 0.32755,-0.98275 -0.61439,-0.7373 -0.36837,-0.36848 0.20465,-0.65509 c 0.12245,-0.76432 -0.13647,-1.09187 -0.77811,-0.98277 l -0.2864,-0.20465 -0.0816,-1.88388 -1.064839,-0.32755 0.327552,-0.49138 1.679237,0.90112 0.0408,1.18775 0.0686,0.0234"
       style="opacity:1;fill:#ffffff;fill-opacity:1;fill-rule:evenodd;stroke:none;stroke-width:0.11122229" />
    <path
       style="opacity:1;fill:#ffffff;fill-opacity:1;fill-rule:evenodd;stroke:none;stroke-width:0.11122229"
       d="m 8.9607746,246.00705 c -0.141141,-0.68813 -0.177177,-1.29162 -0.08508,-1.79301 l 1.8785454,0.64041 -1.4089654,-1.75041 c -0.156379,-0.61172 -0.02825,-1.16661 0.3840513,-1.66489 l -0.8536313,0.51218 v 0.72562 l -0.597375,-0.38405 c -0.09954,-0.46969 -0.170838,-0.93894 -0.0426,-1.40897 0.156378,-0.42664 0.426648,-0.85374 0.811144,-1.28084 l 1.0244684,-0.0426 0.170726,-0.25592 c -0.4344341,-1.01612 -0.3358911,-2.83617 0.170726,-3.11634 l 0.59782,-0.38405 1.280836,0.12768 1.365921,0.59738 0.127683,-1.36593 0.768212,-0.7255 0.811033,0.0851 0.981983,0.51229 -0.0426,1.28073 0.768101,-1.15261 1.067066,-0.42665 0.981872,0.81115 c 0.298854,0.76811 0.22767,1.66489 -0.384051,2.43343 l -0.683017,0.55478 0.597376,0.17073 v 0.81114 l 0.640418,0.0852 0.768099,0.59782 -0.255808,0.93882 0.896228,0.25593 0.341452,0.7681 -0.08508,1.28084 -0.469692,0.21333 0.51229,0.46968 v 1.8781 l 0.811145,-0.12768 0.98187,0.98187 -0.341567,0.93894 -1.280721,0.59737 0.0664,0.34968 1.070179,-0.35624 c 0.177177,-0.31364 0.354466,-0.46402 0.532197,-0.45056 l 0.614284,-0.94183 c -0.06818,-0.96931 -0.573015,-1.50195 -1.515405,-1.5976 -0.313646,-0.0269 -0.409297,-0.21811 -0.286286,-0.57301 0.109,-0.27284 0.109,-0.54611 0,-0.81893 -0.272827,-0.24547 -0.272827,-0.54622 0,-0.90113 0.245467,-1.41286 -0.258923,-1.99978 -1.10566,-2.21187 v -0.81891 c -0.02702,-0.25892 -0.218107,-0.46401 -0.573129,-0.61383 l -0.573017,-0.28685 -0.286731,-1.18773 c 0.723391,-0.6144 1.665665,-0.90114 2.826158,-0.85987 0.409297,0.10911 0.655098,0.0544 0.737294,-0.16372 l 0.16372,-1.35168 1.105769,0.24547 0.532199,-0.28675 -0.122567,-1.26949 0.655209,-0.85973 0.778115,0.36837 0.409298,0.73728 0.573016,-0.0403 0.901121,0.65509 0.144704,0.43411 0.426534,-0.92192 -0.536981,-0.81638 -0.988318,0.043 -0.34368,-0.45101 -0.816373,-0.49405 -0.902342,0.15037 -0.60138,0.62307 -0.49394,0.0425 -0.752083,-0.47269 0.171614,-1.332 c 0.300634,-0.18597 0.687357,-0.28629 1.160053,-0.30063 l 0.429202,0.12856 0.60138,-0.53697 0.687241,-0.0214 c 0.569126,0.48882 1.185183,0.90769 1.869092,1.22478 l -0.06429,0.85942 0.429208,-0.34368 1.181737,0.32188 0.64431,0.0426 0.34367,-0.68735 0.5153,-0.0855 0.27939,1.05272 1.13869,0.32187 0.81637,0.64431 -0.34367,0.49405 0.36492,0.62296 -0.0855,0.70904 -0.36503,0.12868 -0.66555,-0.60138 -0.0213,0.49405 -0.75209,-0.10733 -1.16005,-0.75208 -1.09565,-0.0643 -0.31376,0.38705 h 1.22778 l 0.32767,0.53231 0.32755,0.40919 -0.27806,1.39028 0.0964,0.59871 0.18118,0.14081 1.59704,1.43321 0.16383,-0.28629 -1.47458,-1.55622 0.61439,-1.59704 1.63831,0.69636 0.20464,0.98276 0.81893,0.69602 0.20465,0.98277 -0.4093,0.45056 0.0817,0.32755 0.61428,0.61395 0.16339,1.26994 -0.5322,0.77811 h -0.81894 l -0.20464,-0.20465 -1.55623,0.28628 -0.16383,0.20466 1.26949,0.0816 0.90101,1.02369 0.6144,-0.65521 0.49138,-0.16339 0.86019,0.12257 0.0695,2.01757 0.0539,0.01 1.63441,0.0339 -0.27238,1.94117 -0.34023,0.0339 v 0.40841 l 1.05527,0.54432 -0.23801,1.56668 -0.71516,-0.0678 0.47659,0.88544 -0.54433,1.19174 h -0.0422 l -0.0882,0.12112 -0.30808,-0.0191 -0.19242,0.11523 -0.096,0.36536 0.71205,0.15382 0.47002,-0.0574 0.99711,-2.91136 v -1.32165 l -0.7433,-0.5778 0.28885,-1.98243 -0.5778,-0.7017 -0.78467,-0.20632 -0.0408,-1.40418 -1.27995,-1.11489 0.20643,-1.69303 -0.5778,-0.99099 0.24758,-1.40418 1.07352,-0.33022 1.23868,0.94972 0.5778,-0.53653 1.56935,0.28885 0.45401,1.03236 0.37148,0.33011 0.78456,-1.36292 1.52809,-0.16506 0.45401,0.61951 v 0.37148 l 0.7433,0.61918 -0.49528,0.5778 1.07363,1.40418 -0.24769,1.85864 -0.45401,-0.16517 -1.19742,-0.0408 -0.90847,0.33022 -1.03481,-0.49138 0.70037,1.62529 -0.12512,1.03404 1.4411,-1.97376 1.03359,0.72039 0.12513,0.72028 -0.68914,0.90846 0.34457,0.37583 0.72027,-0.8146 1.31565,0.65776 0.28195,1.50362 -0.564,0.78334 0.564,-0.0308 1.75431,0.75164 -0.21899,1.78568 1.00233,0.90846 -0.18763,1.09654 -0.43844,0.0625 -0.12512,1.75441 c -0.2398,0.27105 -1.16951,-0.0522 -1.19042,-0.31331 l 0.0939,-1.09654 -1.19041,-1.44111 0.3132,-1.09654 -0.53219,-1.06495 -1.22167,-0.46958 -0.18775,-0.62651 -1.28428,-0.84586 -0.97097,0.43833 -0.21899,0.75165 0.5639,-0.40708 0.43843,0.15638 0.5639,-0.21945 0.75163,0.4697 -0.68902,1.09654 -0.28206,-0.18764 -0.21888,0.12513 0.0313,0.28151 0.50094,0.68902 -0.12512,1.15916 -0.8146,0.28194 0.46959,0.72039 -0.75164,0.90846 -0.78334,-0.40707 -0.18763,0.37582 0.12512,0.53265 -0.5639,0.90846 h -0.37584 l -0.91324,-0.70993 0.0982,0.75553 0.23067,0.30709 0.92281,0.49972 1.15304,-1.23045 v -0.61518 h 0.92282 l 0.46134,-0.38405 v -1.30731 l 0.65344,-0.34578 c 0.0382,-0.99667 0.3202,-1.81047 0.76899,-2.4995 l 0.7304,0.30764 0.0769,0.42264 -0.26894,1.84563 1.15349,0.34579 0.11512,0.69213 -0.80715,1.2686 1.38417,1.1149 -0.76899,1.3073 -0.80726,0.30753 0.0764,0.23035 h 0.30765 l 0.80724,0.57646 -0.76898,1.42242 -1.2686,0.0382 v 0.53832 l -1.1149,1.42241 -1.57624,-0.26893 c -0.24324,0.74341 -0.55088,1.42243 -0.99966,1.96074 l -1.07664,-0.0382 0.23079,-0.99966 -0.96152,-0.0382 -1.80692,-0.99968 0.99967,-1.46112 h -0.15382 l -0.42265,0.42276 h -1.03792 l -0.99978,-0.26894 -0.19197,-0.69214 1.96119,-1.07652 0.84584,0.61517 0.49962,0.0382 0.8841,-0.53832 0.3845,-0.61483 0.38416,-0.0381 1.15304,0.1537 0.73029,-0.61516 0.11511,-0.46136 -0.57646,0.19197 -0.99978,-0.15381 -1.07652,-0.11512 -0.76855,0.99978 -0.57658,0.23067 -0.8077,-0.26938 -0.45356,-0.60304 -1.05093,0.84073 -1.07831,-0.42365 -0.28851,-0.71249 -0.78945,1.13614 c -1.13614,-0.60962 -2.0476,-1.31555 -2.46469,-2.23357 l -0.32711,0.73161 h -1.02057 l -0.57746,-0.28851 -0.4618,0.0382 -0.05772,0.59693 -0.327221,0.23068 -0.327105,0.30808 -0.404068,-0.0961 -0.808588,-0.69292 0.07697,-0.44277 0.558228,-1.11701 2.098874,-0.096 1.09754,-0.75075 0.51963,-0.96274 1.32855,-0.44278 0.80848,-0.84718 0.26938,-1.117 0.0305,0.003 0.40051,-2.00289 -0.57869,-0.64687 -0.23801,0.91924 c 0.10466,0.58571 -0.008,1.06274 -0.34023,1.43033 l 0.1021,0.64687 -0.68079,1.08964 -1.4985,-0.30631 v 1.43021 l -0.78334,0.98754 -2.213545,0.0339 -0.510511,-1.87298 -0.578686,0.13602 -0.442333,1.94072 h -0.715051 v -0.81726 l -0.476696,-0.1021 -0.238015,0.95328 -1.021464,0.5787 -1.123459,-0.23858 0.0338,1.15783 -1.123456,1.12357 -0.987544,-0.30631 0.374484,-1.08965 0.612615,-0.1021 1.089645,-1.83862 c 0.519628,-0.28284 0.899789,-0.80502 0.783337,-2.17972 l 0.0338,-1.43021 -0.374485,-0.30631 c 0.0022,0.44188 -0.06129,0.84373 -0.27194,1.15738 l -1.055723,1.56623 0.885441,-0.34012 0.442222,-0.20421 c 0.06306,0.25326 0.07296,0.52042 -0.0338,0.81716 l -0.3885,0.52664 -0.768995,0.086 -0.135912,0.95329 -0.272495,0.85107 -1.034367,-0.31798 v 0.86064 l -0.82816,1.35813 c -0.38661,-0.0114 -0.618174,0.13202 -0.82805,0.29796 l -0.430542,-0.46355 -0.06606,-0.69547 -0.993549,-0.9276 v -1.59014 l -0.861194,2.61672 0.397175,-0.19853 0.59604,0.46357 -0.364031,1.8552 0.960516,-0.66256 0.596151,0.92748 -0.265041,1.0267 -0.132132,0.69558 -0.563009,0.331 h -1.556667 l -0.165498,0.4966 0.430541,0.53009 0.03292,0.62907 -0.430541,0.76166 -1.623068,-0.36414 c -0.09732,1.08364 -0.970191,1.54676 -1.954286,1.92124 -0.739851,-0.35891 -1.236458,-0.7781 -1.623067,-1.22566 -0.220776,0.32021 -0.4858191,0.55177 -0.7951281,0.69558 H 8.8608016 c -0.341897,-0.2537 -0.640418,-0.59604 -0.894149,-1.02658 l -0.728618,0.26493 -0.728618,-0.36403 0.06606,-0.82805 c -1.96552,-0.45279 -2.782737,-1.56801 -2.451239,-3.34579 l 0.397075,-0.26504 c -0.794606,-1.38027 -1.19257,-2.40696 -1.19257,-3.08074 l 0.761605,-0.86109 1.490691,0.86109 0.36403,-2.28574 0.76165,-0.13212 0.795017,0.4966 -0.330998,1.06017 0.264487,0.72851 0.563119,0.36414 0.09913,1.39117 0.397063,0.56301 1.1591593,0.19852 0.5630071,-0.29796 1.490712,1.0931 0.59604,-0.033 0.861083,-1.5897 -0.927593,1.12612 h -0.430539 l -1.391169,-1.02669 -0.5960401,0.29807 -0.7286163,-0.19853 -0.596041,-0.46357 v -0.82805 l 0.198532,-0.39718 -0.530086,-0.26504 -0.264965,-0.62908 0.232044,-1.25859 -0.728652,-0.4301 0.496608,-1.6562 -0.52964,-0.39751 0.36403,-1.49071 1.225703,0.23156 0.397064,1.12613 0.03303,0.92759 0.8941164,0.62918 0.231565,0.36404 0.0991,1.92114 1.6561,0.52964 1.556667,1.12612 0.861194,-0.29807 0.02258,-0.11901 -0.314092,-0.20198 -0.655655,0.17851 -0.59604,-0.447 -0.38761,-0.65565 -1.550105,-0.32755 -0.35758,-0.56612 0.178512,-0.62607 0.327661,-0.4766 -0.08909,-0.38749 -1.132688,-0.65566 0.0595,-0.71516 0.655655,-0.14859 -1.1031031,-1.16261 c -0.1794013,-0.11077 -0.2115443,-0.38361 -0.09688,-0.73029 0.191191,-0.30852 0.4357701,-0.54699 0.7437431,-0.69992 l 1.68057,0.45268 0.934934,0.90591 0.905906,0.11678 0.686463,-1.0813 -0.54054,0.56957 c -0.209431,0.0946 -0.472249,0.002 -0.759425,-0.17507 -0.308864,-0.1021 -0.484373,-0.47181 -0.599155,-0.96407 -0.33578,0.19242 -0.725503,0.14381 -1.139584,-0.0144 -0.258035,-0.10689 -0.418752,-0.37015 -0.482259,-0.78902 -0.177622,-0.37748 -0.43577,-0.62084 -0.730286,-0.80368 l -0.8911124,-0.438 -0.175064,0.64253 0.248025,0.14603 c 0.2385723,0.10689 0.4966074,0.15549 0.7742184,0.14593 l 0.116895,0.11689 0.116894,0.80381 -0.204204,0.23368 -1.2143244,1.14481 -0.954065,-0.35758 0.268045,-0.59604 c -1.430686,-1.07308 -1.82864,-1.94773 -1.19267,-2.62374 0.158603,-0.59604 0.635635,-0.91413 1.430798,-0.95406 l 0.834612,0.50662 -0.545324,-1.32433 z m 0.140362,-9.37615 0.363697,2.58515 -1.346902,0.72805 -1.346825,-0.40051 -1.310309,0.91025 -0.218107,0.91013 0.473028,0.69169 -0.764541,0.98276 -0.691714,0.18163 -0.618685,-0.65521 0.291091,-0.94628 -0.618675,-0.72818 0.982761,-0.76421 -0.218107,-0.29107 0.07256,-1.5293 0.873729,-1.49283 1.201311,0.29108 0.582137,-0.47315 1.565377,0.40018 0.400178,-0.50963 0.327549,0.109 z m -4.18733,7.71872 c -0.546168,0.78857 -0.910243,1.6987 -0.873751,2.8761 l -0.98275,0.25458 -0.655177,-1.74741 0.582182,-0.61862 -0.400144,-0.80069 0.145546,-0.94672 1.201289,0.25459 0.691625,-0.0361 0.29118,0.76465 z m 0.436992,-1.41986 c 0.630852,-0.26671 1.067956,-0.53399 1.31031,-0.8007 l -0.655099,-0.76421 0.50962,-1.49237 1.164831,0.40017 c -0.200311,1.14037 -0.12735,2.22089 0.546135,3.16717 l -0.07262,3.20376 c -0.910165,0.14548 -1.432021,0.67946 -1.565377,1.60183 l -0.473139,0.43665 c -1.389837,-0.75209 -2.020657,-1.86865 -0.982763,-3.78634 l 0.65521,-0.21811 -0.436658,-1.7474 z m 0.930263,9.89756 0.499165,0.22678 -0.453564,1.72472 -1.951639,1.49761 -0.362774,-0.22678 0.0908,-2.76832 h 1.316038 l 0.544321,1.13435 z m 0.499165,-0.99845 0.635192,-0.90757 v -0.63519 l -1.361251,-1.27082 -0.453563,1.0892 -0.04516,0.81681 1.225224,0.90757 z m -0.816816,0.18163 -2.178388,1.0892 -0.771171,1.54321 0.544389,2.13314 h -0.271972 l -1.72439,-0.77156 -0.135981,-1.17996 c -0.151196,-0.71081 0.30238,-1.05883 0.816783,-1.0436 l 0.271972,-0.18117 -0.77116,-1.27083 0.271972,-0.95273 1.17999,-0.0909 0.271984,0.4084 0.635179,-1.22522 h 0.862351 l 0.27205,1.0436 0.725948,0.49928 z m -2.950427,4.85641 -0.453575,1.72483 0.18117,0.49917 -0.18117,0.90758 -1.67920104,-0.22679 -0.45357599,-0.63519 c -0.165966,-0.87766 0.21158999,-1.21043 1.13437903,-0.99833 l -0.317584,-1.40685 1.769991,0.13603 z m 0.771605,3.4044 -0.771171,2.08764 0.18117,0.6352 -0.317584,0.27193 -0.816794,0.0908 -0.680369,-0.81671 0.63519,-0.81681 -0.590001,-0.0451 -0.95277403,-1.22523 c 0.93930503,0.17896 1.39461603,0.0704 2.08758603,-0.18118 h 1.225181 z m -0.574352,2.96563 -0.213758,0.18341 -0.09167,0.42787 0.443144,0.48927 0.825481,0.0151 0.04562,-0.24458 -1.009265,-0.87154 z m 7.0913224,-27.45277 -0.3115331,0.3637 -0.5713493,-0.93505 0.4936053,-0.779 1.3507941,0.0778 1.19475,-1.03881 0.908909,0.38927 0.727282,-0.85675 0.675119,0.20766 0.129463,-0.59738 0.493493,-0.67512 0.908909,-0.1556 0.311534,0.62307 0.1556,0.67512 0.129907,0.33756 0.934936,-0.6491 1.064841,1.09099 0.389278,-0.83116 1.064842,0.49315 -0.363586,0.9871 0.622956,-0.3637 0.961072,0.41541 0.129907,0.44134 0.519185,-0.67512 0.831166,-0.23379 0.675117,0.23379 0.05172,0.51918 -0.571348,-0.10344 -0.10388,0.36371 -0.779002,0.779 -0.233678,0.6751 h -1.324657 l -0.389278,0.12992 -0.207652,-0.23379 -0.207763,-0.9871 -0.934935,-1.0387 -1.324658,-0.10388 -0.752975,0.31154 -0.285396,-0.23381 -0.779001,-0.5452 -0.571349,-0.18163 -1.220776,0.59737 -0.856745,1.16874 -1.974196,-0.0255 -0.961072,0.36357 z m 13.320648,23.56656 0.181514,-0.80859 -0.141138,-0.54565 0.424423,-0.28284 1.597149,0.0399 0.363591,-0.36359 0.181624,-0.60649 -0.323215,0.20197 h -1.900341 l -0.323215,0.34368 -0.848957,0.0403 -0.161606,0.88934 -0.687355,0.84896 0.282841,0.18162 0.687352,0.24247 0.666891,-0.18163 z m 0.546102,0.22244 0.707262,-1.19264 h 0.97019 l -0.26248,1.55623 -0.808478,-0.0404 z m 7.680786,1.38205 c 0.16428,-0.007 0.55356,-0.77777 0.83028,-1.16705 l -1.23424,-0.17941 c 0.13459,0.44878 0.13459,1.18953 0.40352,1.34646 z m -0.13469,1.61617 1.92993,-1.34646 0.29152,1.12224 c 0.65821,0.26938 1.31643,0.441 1.97508,0.47102 l 0.53876,1.9524 h -1.00978 l -0.44878,-0.7403 -0.67335,-0.13468 -0.26938,0.29151 h -0.31409 l -2.0872,-1.39162 z m 16.23368,-0.24981 c 0.66655,-0.24769 1.1279,-0.59826 1.38427,-1.05093 l 1.02535,-0.0253 0.0769,0.64086 -0.66644,1.28162 -1.17918,0.0766 -0.7433,-0.66612 0.10244,-0.25625 z m 2.71716,-1.10265 0.20509,0.33278 0.69214,0.0769 0.48693,-0.58948 0.58959,-1.28173 c 0.0253,-0.1794 -0.0169,-0.32454 -0.12769,-0.43576 l -0.46146,0.077 -0.38405,-0.87153 -0.0251,-0.4102 -0.25637,-0.33321 h -1.02536 l 0.15338,1.46113 0.33322,0.89712 -0.1794,1.07663 z m -4.17818,1.9485 0.64075,-1.66611 1.20443,0.0256 0.46135,-0.66644 v -0.56346 l -0.89712,-0.56401 0.46135,-1.25603 0.0253,-0.43577 -0.43577,-0.79457 0.89712,0.87154 0.1021,1.51229 0.5639,0.82026 0.1021,0.28207 0.15382,0.0251 0.33278,-0.58959 -0.0251,-0.28196 -0.48704,-0.10254 v -0.20498 l 0.28195,-0.4102 0.10254,-1.71737 0.15382,-0.53832 -0.25636,-0.33278 h -0.76855 l 0.20509,-1.02536 0.0251,-0.28195 -1.43543,-0.0766 c -0.0253,1.09354 -0.49528,1.777 -1.40986,2.05072 l 0.17896,1.81994 -0.58948,0.71726 0.28151,1.46113 -1.07664,1.15305 -0.61517,-0.28151 -0.28195,0.15338 0.10255,0.79457 1.23034,0.38449 0.76899,-0.28194 z m 2.24869,-10.47314 0.31421,0.2794 -0.0695,-1.0475 -1.22223,-0.13947 -0.20931,0.69814 1.18729,0.20943 z m -0.73328,-2.20008 1.11744,-0.66344 0.0695,-0.90758 0.27928,-0.62818 h 0.69825 l 0.52353,-0.59348 -0.94283,-0.80292 -0.90758,-0.52352 -0.0695,-0.62829 -0.27938,-0.10467 -1.36158,1.99022 -0.87288,0.0348 -0.17418,0.80336 v 0.97754 l 0.3141,-0.1743 c 0.53531,0.40708 1.001,1.12925 1.60626,1.22222 z m -1.92081,-3.17807 1.0823,-0.48882 0.17417,-1.67612 -0.52352,-0.97753 0.48882,-0.10478 0.45357,-0.59348 v -0.45356 l -0.52352,-0.8028 h -0.52353 l -0.13947,-0.17429 0.13947,-0.55823 -0.13947,-0.38404 -1.5015,-0.48883 -0.55878,0.41887 -0.10466,0.87276 0.55866,1.15226 v 0.73329 l -0.20943,0.66344 -0.52352,1.22222 0.0348,1.04738 1.81559,0.59349 z m 1.57145,-2.96874 1.0128,-0.97754 0.73328,-0.24413 0.0348,0.94283 -1.04749,1.04738 -0.7334,-0.7681 z m -3.1081,-3.8067 c 0.97753,-0.54132 1.95551,-0.64609 2.93349,0.20943 l 0.10421,-0.83772 -0.20943,-0.41876 0.13947,-0.45356 0.13947,-0.80292 -0.97753,-0.0348 c -0.7681,-0.52352 -1.44322,-0.67512 -2.02547,-0.45356 l -0.10466,2.79357 z m -1.09054,-1.03358 0.0305,-0.95107 1.04305,-1.47236 0.0918,-0.98154 h -1.10444 l -0.7056,-1.16562 -0.4292,-0.24501 -0.39885,0.0917 -0.42921,0.67478 0.67468,0.76677 0.0917,0.52141 -0.24502,0.39884 -1.41108,-1.13491 -0.42932,0.24514 -0.5213,-0.18387 0.0917,-0.36791 -1.1348,-0.64431 -0.0613,0.49049 -1.56446,0.0303 -0.46013,1.01234 -1.84084,-0.27593 -0.76677,0.36803 c 0.0203,-0.23502 0.16373,-0.47014 0.42921,-0.70559 l 0.82805,-0.46013 c 0.24503,-0.0508 0.49049,-0.0199 0.73596,0.0918 l 0.4906,0.0304 0.95095,-0.67467 0.33723,-0.30676 -0.15338,-0.30676 -0.49049,-0.21464 -1.50328,-0.15338 -0.18374,0.15338 -2.0555,-0.79724 c -0.0917,0.65432 -0.0203,1.30908 0.21466,1.9634 l -0.30675,1.56445 0.39884,0.21466 c 0.005,1.15049 0.74119,1.56967 1.80992,1.65655 l 1.16572,-0.0917 1.04316,0.58259 c 0.84851,-0.22456 1.69736,-0.0817 2.54632,0.42932 l 1.1348,-0.42932 c 0,-0.35747 -0.12246,-0.59259 -0.36792,-0.70548 l -0.64432,-0.18385 -0.46012,0.21466 c -0.21466,-0.24503 -0.47003,-0.40887 -0.76676,-0.49049 l -1.3191,-0.42932 0.42932,-0.49049 1.01223,0.0305 0.98142,0.70548 0.52141,-0.21454 1.19654,0.33711 -0.15338,1.07352 1.65654,0.42931 z m -13.74552,-6.87276 0.64431,-0.73596 -1.47236,-0.4906 -0.613496,0.67478 c 0.08175,0.2963 0.327216,0.42921 0.735956,0.39884 l 0.70559,0.15338 z m 2.30141,-0.36849 c 0.18374,0.33723 0.30665,0.88978 0.55211,1.01235 0.15338,0.13247 0.22467,0.14291 0.46013,0.0303 l 0.24502,-0.70549 -0.21455,-0.39884 -1.16572,-0.76688 -0.15337,0.73596 0.27594,0.0916 z m 3.46692,1.38072 0.82816,-0.0612 0.39884,-1.56456 -0.24502,-0.55222 -1.07363,0.24502 -0.18374,1.10442 c 0.18374,0.12259 0.18374,0.55224 0.27583,0.82807 z m 1.68746,0.24591 1.19653,-0.15337 -0.21466,-0.88978 c -0.0712,-0.23502 -0.26582,-0.30664 -0.58258,-0.21455 l -0.49049,0.36793 0.0917,0.88977 z m 3.03737,0.21466 1.16561,0.52129 -0.30664,0.76688 -0.42932,-0.0303 -0.4292,-0.55223 -0.33712,-0.27594 0.33712,-0.42921 z m 1.53409,0.36804 1.2269,-0.30675 -0.39885,-1.16572 -0.49049,-0.0917 -0.5213,0.61351 0.0612,0.36793 z m -12.19063,11.85073 0.97408,0.73907 -0.16983,1.43021 1.05527,0.81726 -0.4084,1.53231 -0.40841,0.34067 -0.5104,0.27194 -0.27294,-0.0578 v -0.38761 l 0.28684,-0.16372 0.32755,-0.98275 -0.61439,-0.7373 -0.36837,-0.36848 0.20465,-0.65509 c 0.12245,-0.76432 -0.13647,-1.09187 -0.77811,-0.98277 l -0.2864,-0.20465 -0.0816,-1.88388 -1.064839,-0.32755 0.327552,-0.49138 1.679237,0.90112 0.0408,1.18775 0.0686,0.0234"
       id="path4183" />
  </g>
</svg>
